G75*
G70*
%OFA0B0*%
%FSLAX24Y24*%
%IPPOS*%
%LPD*%
%AMOC8*
5,1,8,0,0,1.08239X$1,22.5*
%
%ADD10C,0.0000*%
%ADD11C,0.0160*%
%ADD12C,0.0060*%
%ADD13C,0.0050*%
%ADD14C,0.0040*%
%ADD15C,0.0080*%
%ADD16R,0.0340X0.0300*%
%ADD17C,0.0030*%
D10*
X000180Y000180D02*
X000180Y014750D01*
X011472Y014750D01*
X011472Y000180D01*
X000180Y000180D01*
D11*
X001430Y003680D02*
X001430Y006080D01*
X001432Y006137D01*
X001438Y006193D01*
X001447Y006249D01*
X001460Y006305D01*
X001477Y006359D01*
X001497Y006412D01*
X001521Y006463D01*
X001549Y006513D01*
X001579Y006561D01*
X001613Y006607D01*
X001650Y006650D01*
X001689Y006691D01*
X001731Y006729D01*
X001776Y006764D01*
X001823Y006796D01*
X001872Y006825D01*
X001922Y006851D01*
X001975Y006873D01*
X002028Y006892D01*
X002083Y006907D01*
X002139Y006918D01*
X002195Y006926D01*
X002252Y006930D01*
X002308Y006930D01*
X002365Y006926D01*
X002421Y006918D01*
X002477Y006907D01*
X002532Y006892D01*
X002585Y006873D01*
X002638Y006851D01*
X002688Y006825D01*
X002737Y006796D01*
X002784Y006764D01*
X002829Y006729D01*
X002871Y006691D01*
X002910Y006650D01*
X002947Y006607D01*
X002981Y006561D01*
X003011Y006513D01*
X003039Y006463D01*
X003063Y006412D01*
X003083Y006359D01*
X003100Y006305D01*
X003113Y006249D01*
X003122Y006193D01*
X003128Y006137D01*
X003130Y006080D01*
X003130Y003680D01*
X003128Y003623D01*
X003122Y003567D01*
X003113Y003511D01*
X003100Y003455D01*
X003083Y003401D01*
X003063Y003348D01*
X003039Y003297D01*
X003011Y003247D01*
X002981Y003199D01*
X002947Y003153D01*
X002910Y003110D01*
X002871Y003069D01*
X002829Y003031D01*
X002784Y002996D01*
X002737Y002964D01*
X002688Y002935D01*
X002638Y002909D01*
X002585Y002887D01*
X002532Y002868D01*
X002477Y002853D01*
X002421Y002842D01*
X002365Y002834D01*
X002308Y002830D01*
X002252Y002830D01*
X002195Y002834D01*
X002139Y002842D01*
X002083Y002853D01*
X002028Y002868D01*
X001975Y002887D01*
X001922Y002909D01*
X001872Y002935D01*
X001823Y002964D01*
X001776Y002996D01*
X001731Y003031D01*
X001689Y003069D01*
X001650Y003110D01*
X001613Y003153D01*
X001579Y003199D01*
X001549Y003247D01*
X001521Y003297D01*
X001497Y003348D01*
X001477Y003401D01*
X001460Y003455D01*
X001447Y003511D01*
X001438Y003567D01*
X001432Y003623D01*
X001430Y003680D01*
D12*
X001630Y003680D02*
X001630Y006080D01*
X001632Y006130D01*
X001638Y006179D01*
X001647Y006228D01*
X001660Y006276D01*
X001677Y006323D01*
X001697Y006368D01*
X001721Y006412D01*
X001748Y006454D01*
X001779Y006494D01*
X001812Y006531D01*
X001848Y006565D01*
X001886Y006597D01*
X001927Y006626D01*
X001969Y006651D01*
X002014Y006673D01*
X002060Y006692D01*
X002108Y006707D01*
X002156Y006718D01*
X002205Y006726D01*
X002255Y006730D01*
X002305Y006730D01*
X002355Y006726D01*
X002404Y006718D01*
X002452Y006707D01*
X002500Y006692D01*
X002546Y006673D01*
X002591Y006651D01*
X002633Y006626D01*
X002674Y006597D01*
X002712Y006565D01*
X002748Y006531D01*
X002781Y006494D01*
X002812Y006454D01*
X002839Y006412D01*
X002863Y006368D01*
X002883Y006323D01*
X002900Y006276D01*
X002913Y006228D01*
X002922Y006179D01*
X002928Y006130D01*
X002930Y006080D01*
X002930Y003680D01*
X002928Y003630D01*
X002922Y003581D01*
X002913Y003532D01*
X002900Y003484D01*
X002883Y003437D01*
X002863Y003392D01*
X002839Y003348D01*
X002812Y003306D01*
X002781Y003266D01*
X002748Y003229D01*
X002712Y003195D01*
X002674Y003163D01*
X002633Y003134D01*
X002591Y003109D01*
X002546Y003087D01*
X002500Y003068D01*
X002452Y003053D01*
X002404Y003042D01*
X002355Y003034D01*
X002305Y003030D01*
X002255Y003030D01*
X002205Y003034D01*
X002156Y003042D01*
X002108Y003053D01*
X002060Y003068D01*
X002014Y003087D01*
X001969Y003109D01*
X001927Y003134D01*
X001886Y003163D01*
X001848Y003195D01*
X001812Y003229D01*
X001779Y003266D01*
X001748Y003306D01*
X001721Y003348D01*
X001697Y003392D01*
X001677Y003437D01*
X001660Y003484D01*
X001647Y003532D01*
X001638Y003581D01*
X001632Y003630D01*
X001630Y003680D01*
X002280Y004380D02*
X002280Y004630D01*
X002580Y004630D01*
X002580Y004780D02*
X002580Y004980D01*
X001980Y004980D01*
X001980Y004780D01*
X002580Y004780D01*
X002280Y004630D02*
X001980Y004630D01*
X001980Y005130D02*
X002280Y005130D01*
X002280Y005380D01*
X002280Y005130D02*
X002580Y005130D01*
D13*
X003244Y003305D02*
X003244Y002855D01*
X003094Y002855D02*
X003395Y002855D01*
X003555Y002855D02*
X003705Y003005D01*
X003630Y002855D02*
X003780Y002855D01*
X003855Y002930D01*
X003855Y003230D01*
X003780Y003305D01*
X003630Y003305D01*
X003555Y003230D01*
X003555Y002930D01*
X003630Y002855D01*
X003395Y003155D02*
X003244Y003305D01*
D14*
X003400Y003270D02*
X004070Y002600D01*
X004306Y002600D01*
X005054Y002600D02*
X005290Y002600D01*
X005960Y003270D01*
X005960Y005160D01*
X005054Y005160D01*
X004306Y005160D02*
X003400Y005160D01*
X003400Y003270D01*
X005054Y002719D02*
X005118Y002741D01*
X005181Y002768D01*
X005243Y002798D01*
X005302Y002831D01*
X005360Y002867D01*
X005416Y002907D01*
X005469Y002950D01*
X005520Y002995D01*
X005568Y003043D01*
X005613Y003094D01*
X005656Y003148D01*
X005695Y003204D01*
X005732Y003261D01*
X005765Y003321D01*
X005794Y003383D01*
X005820Y003446D01*
X005843Y003510D01*
X005862Y003576D01*
X005877Y003643D01*
X005888Y003710D01*
X005896Y003778D01*
X005900Y003846D01*
X005900Y003914D01*
X005896Y003982D01*
X005888Y004050D01*
X005877Y004117D01*
X005862Y004184D01*
X005843Y004250D01*
X005820Y004314D01*
X005794Y004377D01*
X005765Y004439D01*
X005732Y004499D01*
X005695Y004556D01*
X005656Y004612D01*
X005613Y004666D01*
X005568Y004717D01*
X005520Y004765D01*
X005469Y004810D01*
X005416Y004853D01*
X005360Y004893D01*
X005302Y004929D01*
X005243Y004962D01*
X005181Y004992D01*
X005118Y005019D01*
X005054Y005041D01*
X005877Y005800D02*
X005800Y005877D01*
X005800Y006030D01*
X005877Y006107D01*
X005877Y006260D02*
X005800Y006337D01*
X005800Y006491D01*
X005877Y006567D01*
X005953Y006567D01*
X006030Y006491D01*
X006030Y006414D01*
X006030Y006491D02*
X006107Y006567D01*
X006184Y006567D01*
X006260Y006491D01*
X006260Y006337D01*
X006184Y006260D01*
X006184Y006107D02*
X006260Y006030D01*
X006260Y005877D01*
X006184Y005800D01*
X005877Y005800D01*
X006077Y004647D02*
X006000Y004570D01*
X006000Y004416D01*
X006077Y004340D01*
X006230Y004493D02*
X006230Y004570D01*
X006153Y004647D01*
X006077Y004647D01*
X006230Y004570D02*
X006307Y004647D01*
X006384Y004647D01*
X006460Y004570D01*
X006460Y004416D01*
X006384Y004340D01*
X006384Y004186D02*
X006460Y004109D01*
X006460Y003956D01*
X006384Y003879D01*
X006077Y003879D01*
X006000Y003956D01*
X006000Y004109D01*
X006077Y004186D01*
X006000Y003726D02*
X006000Y003572D01*
X006000Y003649D02*
X006460Y003649D01*
X006460Y003572D02*
X006460Y003726D01*
X004306Y002719D02*
X004242Y002741D01*
X004179Y002768D01*
X004117Y002798D01*
X004058Y002831D01*
X004000Y002867D01*
X003944Y002907D01*
X003891Y002950D01*
X003840Y002995D01*
X003792Y003043D01*
X003747Y003094D01*
X003704Y003148D01*
X003665Y003204D01*
X003628Y003261D01*
X003595Y003321D01*
X003566Y003383D01*
X003540Y003446D01*
X003517Y003510D01*
X003498Y003576D01*
X003483Y003643D01*
X003472Y003710D01*
X003464Y003778D01*
X003460Y003846D01*
X003460Y003914D01*
X003464Y003982D01*
X003472Y004050D01*
X003483Y004117D01*
X003498Y004184D01*
X003517Y004250D01*
X003540Y004314D01*
X003566Y004377D01*
X003595Y004439D01*
X003628Y004499D01*
X003665Y004556D01*
X003704Y004612D01*
X003747Y004666D01*
X003792Y004717D01*
X003840Y004765D01*
X003891Y004810D01*
X003944Y004853D01*
X004000Y004893D01*
X004058Y004929D01*
X004117Y004962D01*
X004179Y004992D01*
X004242Y005019D01*
X004306Y005041D01*
X001860Y005556D02*
X001784Y005479D01*
X001477Y005479D01*
X001400Y005556D01*
X001400Y005709D01*
X001477Y005786D01*
X001400Y005940D02*
X001707Y006247D01*
X001784Y006247D01*
X001860Y006170D01*
X001860Y006016D01*
X001784Y005940D01*
X001784Y005786D02*
X001860Y005709D01*
X001860Y005556D01*
X001400Y005940D02*
X001400Y006247D01*
X001400Y004467D02*
X001400Y004160D01*
X001400Y004314D02*
X001860Y004314D01*
X001707Y004160D01*
X001784Y004007D02*
X001860Y003930D01*
X001860Y003777D01*
X001784Y003700D01*
X001477Y003700D01*
X001400Y003777D01*
X001400Y003930D01*
X001477Y004007D01*
X004600Y008300D02*
X006490Y008300D01*
X007160Y008970D01*
X007160Y009206D01*
X007160Y009954D02*
X007160Y010190D01*
X006490Y010860D01*
X004600Y010860D01*
X004600Y009954D01*
X004600Y009206D02*
X004600Y008300D01*
X004719Y009954D02*
X004741Y010018D01*
X004768Y010081D01*
X004798Y010143D01*
X004831Y010202D01*
X004867Y010260D01*
X004907Y010316D01*
X004950Y010369D01*
X004995Y010420D01*
X005043Y010468D01*
X005094Y010513D01*
X005148Y010556D01*
X005204Y010595D01*
X005261Y010632D01*
X005321Y010665D01*
X005383Y010694D01*
X005446Y010720D01*
X005510Y010743D01*
X005576Y010762D01*
X005643Y010777D01*
X005710Y010788D01*
X005778Y010796D01*
X005846Y010800D01*
X005914Y010800D01*
X005982Y010796D01*
X006050Y010788D01*
X006117Y010777D01*
X006184Y010762D01*
X006250Y010743D01*
X006314Y010720D01*
X006377Y010694D01*
X006439Y010665D01*
X006499Y010632D01*
X006556Y010595D01*
X006612Y010556D01*
X006666Y010513D01*
X006717Y010468D01*
X006765Y010420D01*
X006810Y010369D01*
X006853Y010316D01*
X006893Y010260D01*
X006929Y010202D01*
X006962Y010143D01*
X006992Y010081D01*
X007019Y010018D01*
X007041Y009954D01*
X006870Y010930D02*
X005090Y010930D01*
X004719Y009206D02*
X004741Y009142D01*
X004768Y009079D01*
X004798Y009017D01*
X004831Y008958D01*
X004867Y008900D01*
X004907Y008844D01*
X004950Y008791D01*
X004995Y008740D01*
X005043Y008692D01*
X005094Y008647D01*
X005148Y008604D01*
X005204Y008565D01*
X005261Y008528D01*
X005321Y008495D01*
X005383Y008466D01*
X005446Y008440D01*
X005510Y008417D01*
X005576Y008398D01*
X005643Y008383D01*
X005710Y008372D01*
X005778Y008364D01*
X005846Y008360D01*
X005914Y008360D01*
X005982Y008364D01*
X006050Y008372D01*
X006117Y008383D01*
X006184Y008398D01*
X006250Y008417D01*
X006314Y008440D01*
X006377Y008466D01*
X006439Y008495D01*
X006499Y008528D01*
X006556Y008565D01*
X006612Y008604D01*
X006666Y008647D01*
X006717Y008692D01*
X006765Y008740D01*
X006810Y008791D01*
X006853Y008844D01*
X006893Y008900D01*
X006929Y008958D01*
X006962Y009017D01*
X006992Y009079D01*
X007019Y009142D01*
X007041Y009206D01*
X007093Y006960D02*
X007093Y006884D01*
X007400Y006577D01*
X007400Y006500D01*
X007553Y006577D02*
X007630Y006500D01*
X007783Y006500D01*
X007860Y006577D01*
X007860Y006884D01*
X007783Y006960D01*
X007630Y006960D01*
X007553Y006884D01*
X007400Y006960D02*
X007093Y006960D01*
X007650Y011629D02*
X007650Y011859D01*
X007727Y011936D01*
X008034Y011936D01*
X008110Y011859D01*
X008110Y011629D01*
X007650Y011629D01*
X007650Y012090D02*
X007650Y012397D01*
X007650Y012243D02*
X008110Y012243D01*
X007957Y012090D01*
X006870Y012430D02*
X005090Y012430D01*
D15*
X005904Y012074D02*
X005904Y011286D01*
X006307Y011680D01*
X005904Y012074D01*
X006590Y005430D02*
X006590Y003070D01*
X006590Y005430D02*
X009170Y005430D01*
X009170Y003070D01*
D16*
X007880Y005620D03*
D17*
X007597Y008406D02*
X007350Y008406D01*
X007289Y008468D01*
X007289Y008591D01*
X007350Y008653D01*
X007350Y008774D02*
X007289Y008836D01*
X007289Y008959D01*
X007350Y009021D01*
X007412Y009021D01*
X007474Y008959D01*
X007474Y008774D01*
X007350Y008774D01*
X007474Y008774D02*
X007597Y008898D01*
X007659Y009021D01*
X007597Y008653D02*
X007659Y008591D01*
X007659Y008468D01*
X007597Y008406D01*
X004151Y002472D02*
X004027Y002472D01*
X003966Y002410D01*
X003844Y002472D02*
X003844Y002286D01*
X003721Y002348D01*
X003659Y002348D01*
X003597Y002286D01*
X003597Y002163D01*
X003659Y002101D01*
X003783Y002101D01*
X003844Y002163D01*
X003966Y002163D02*
X004027Y002101D01*
X004151Y002101D01*
X004213Y002163D01*
X004213Y002410D01*
X004151Y002472D01*
X003844Y002472D02*
X003597Y002472D01*
M02*
