G75*
G70*
%OFA0B0*%
%FSLAX24Y24*%
%IPPOS*%
%LPD*%
%AMOC8*
5,1,8,0,0,1.08239X$1,22.5*
%
%ADD10C,0.0000*%
%ADD11C,0.0600*%
%ADD12C,0.0520*%
%ADD13C,0.0594*%
%ADD14C,0.0160*%
%ADD15C,0.0591*%
D10*
X000180Y000180D02*
X000180Y014750D01*
X011472Y014750D01*
X011472Y000180D01*
X000180Y000180D01*
D11*
X008990Y010700D03*
X010770Y010700D03*
X010770Y013260D03*
X008990Y013260D03*
D12*
X002280Y005830D03*
X002280Y003930D03*
D13*
X001880Y001480D03*
X002880Y001480D03*
X004080Y001480D03*
X005080Y001480D03*
X006080Y001480D03*
X007080Y001480D03*
X008080Y001480D03*
X009080Y001480D03*
X010080Y004080D03*
X010080Y005080D03*
X010080Y006080D03*
X010080Y007080D03*
X010080Y008080D03*
X010080Y009080D03*
X008080Y013280D03*
X007080Y013280D03*
X006080Y013280D03*
X005080Y013280D03*
X003880Y013280D03*
X002880Y013280D03*
X001880Y013280D03*
X000880Y013280D03*
X001480Y010280D03*
X001480Y009280D03*
X001480Y008280D03*
X001480Y007280D03*
X000880Y001480D03*
D14*
X000660Y001077D02*
X000789Y001023D01*
X000971Y001023D01*
X001139Y001093D01*
X001267Y001221D01*
X001337Y001389D01*
X001337Y001571D01*
X001267Y001739D01*
X001139Y001867D01*
X000971Y001937D01*
X000789Y001937D01*
X000660Y001883D01*
X000660Y012877D01*
X000789Y012823D01*
X000971Y012823D01*
X001139Y012893D01*
X001267Y013021D01*
X001337Y013189D01*
X001337Y013371D01*
X001267Y013539D01*
X001139Y013667D01*
X000971Y013737D01*
X000789Y013737D01*
X000660Y013683D01*
X000660Y014270D01*
X010992Y014270D01*
X010992Y013666D01*
X010861Y013720D01*
X010678Y013720D01*
X010509Y013650D01*
X010380Y013521D01*
X010310Y013351D01*
X010310Y013168D01*
X010380Y012999D01*
X010509Y012870D01*
X010678Y012800D01*
X010861Y012800D01*
X010992Y012854D01*
X010992Y011106D01*
X010861Y011160D01*
X010678Y011160D01*
X010509Y011090D01*
X010380Y010961D01*
X010310Y010791D01*
X010310Y010608D01*
X010380Y010439D01*
X010509Y010310D01*
X010678Y010240D01*
X010861Y010240D01*
X010992Y010294D01*
X010992Y003375D01*
X010966Y003438D01*
X010838Y003566D01*
X010671Y003635D01*
X010489Y003635D01*
X010322Y003566D01*
X010230Y003474D01*
X010138Y003566D01*
X010000Y003623D01*
X010171Y003623D01*
X010339Y003693D01*
X010467Y003821D01*
X010537Y003989D01*
X010537Y004171D01*
X010467Y004339D01*
X010339Y004467D01*
X010171Y004537D01*
X009989Y004537D01*
X009821Y004467D01*
X009693Y004339D01*
X009623Y004171D01*
X009623Y003989D01*
X009693Y003821D01*
X009821Y003693D01*
X009960Y003635D01*
X009789Y003635D01*
X009622Y003566D01*
X009494Y003438D01*
X009425Y003271D01*
X009425Y003089D01*
X009494Y002922D01*
X009586Y002830D01*
X009494Y002738D01*
X009425Y002571D01*
X009425Y002389D01*
X009494Y002222D01*
X009622Y002094D01*
X009789Y002025D01*
X009971Y002025D01*
X010138Y002094D01*
X010230Y002186D01*
X010322Y002094D01*
X010489Y002025D01*
X010671Y002025D01*
X010838Y002094D01*
X010966Y002222D01*
X010992Y002285D01*
X010992Y000660D01*
X000660Y000660D01*
X000660Y001077D01*
X000660Y000973D02*
X010992Y000973D01*
X010992Y001131D02*
X009377Y001131D01*
X009339Y001093D02*
X009467Y001221D01*
X009537Y001389D01*
X009537Y001571D01*
X009467Y001739D01*
X009339Y001867D01*
X009171Y001937D01*
X008989Y001937D01*
X008821Y001867D01*
X008693Y001739D01*
X008623Y001571D01*
X008623Y001389D01*
X008693Y001221D01*
X008821Y001093D01*
X008989Y001023D01*
X009171Y001023D01*
X009339Y001093D01*
X009496Y001290D02*
X010992Y001290D01*
X010992Y001448D02*
X009537Y001448D01*
X009522Y001607D02*
X010992Y001607D01*
X010992Y001765D02*
X009441Y001765D01*
X009203Y001924D02*
X010992Y001924D01*
X010992Y002082D02*
X010809Y002082D01*
X010974Y002241D02*
X010992Y002241D01*
X010351Y002082D02*
X010109Y002082D01*
X009651Y002082D02*
X000660Y002082D01*
X000660Y001924D02*
X000757Y001924D01*
X001003Y001924D02*
X001757Y001924D01*
X001789Y001937D02*
X001621Y001867D01*
X001493Y001739D01*
X001423Y001571D01*
X001423Y001389D01*
X001493Y001221D01*
X001621Y001093D01*
X001789Y001023D01*
X001971Y001023D01*
X002139Y001093D01*
X002267Y001221D01*
X002337Y001389D01*
X002337Y001571D01*
X002267Y001739D01*
X002139Y001867D01*
X001971Y001937D01*
X001789Y001937D01*
X002003Y001924D02*
X002757Y001924D01*
X002789Y001937D02*
X002621Y001867D01*
X002493Y001739D01*
X002423Y001571D01*
X002423Y001389D01*
X002493Y001221D01*
X002621Y001093D01*
X002789Y001023D01*
X002971Y001023D01*
X003139Y001093D01*
X003267Y001221D01*
X003337Y001389D01*
X003337Y001571D01*
X003267Y001739D01*
X003139Y001867D01*
X002971Y001937D01*
X002789Y001937D01*
X003003Y001924D02*
X003957Y001924D01*
X003989Y001937D02*
X003821Y001867D01*
X003693Y001739D01*
X003623Y001571D01*
X003623Y001389D01*
X003693Y001221D01*
X003821Y001093D01*
X003989Y001023D01*
X004171Y001023D01*
X004339Y001093D01*
X004467Y001221D01*
X004537Y001389D01*
X004537Y001571D01*
X004467Y001739D01*
X004339Y001867D01*
X004171Y001937D01*
X003989Y001937D01*
X004203Y001924D02*
X004957Y001924D01*
X004989Y001937D02*
X004821Y001867D01*
X004693Y001739D01*
X004623Y001571D01*
X004623Y001389D01*
X004693Y001221D01*
X004821Y001093D01*
X004989Y001023D01*
X005171Y001023D01*
X005339Y001093D01*
X005467Y001221D01*
X005537Y001389D01*
X005537Y001571D01*
X005467Y001739D01*
X005339Y001867D01*
X005171Y001937D01*
X004989Y001937D01*
X005203Y001924D02*
X005957Y001924D01*
X005989Y001937D02*
X005821Y001867D01*
X005693Y001739D01*
X005623Y001571D01*
X005623Y001389D01*
X005693Y001221D01*
X005821Y001093D01*
X005989Y001023D01*
X006171Y001023D01*
X006339Y001093D01*
X006467Y001221D01*
X006537Y001389D01*
X006537Y001571D01*
X006467Y001739D01*
X006339Y001867D01*
X006171Y001937D01*
X005989Y001937D01*
X006203Y001924D02*
X006957Y001924D01*
X006989Y001937D02*
X006821Y001867D01*
X006693Y001739D01*
X006623Y001571D01*
X006623Y001389D01*
X006693Y001221D01*
X006821Y001093D01*
X006989Y001023D01*
X007171Y001023D01*
X007339Y001093D01*
X007467Y001221D01*
X007537Y001389D01*
X007537Y001571D01*
X007467Y001739D01*
X007339Y001867D01*
X007171Y001937D01*
X006989Y001937D01*
X007203Y001924D02*
X007957Y001924D01*
X007989Y001937D02*
X007821Y001867D01*
X007693Y001739D01*
X007623Y001571D01*
X007623Y001389D01*
X007693Y001221D01*
X007821Y001093D01*
X007989Y001023D01*
X008171Y001023D01*
X008339Y001093D01*
X008467Y001221D01*
X008537Y001389D01*
X008537Y001571D01*
X008467Y001739D01*
X008339Y001867D01*
X008171Y001937D01*
X007989Y001937D01*
X008203Y001924D02*
X008957Y001924D01*
X008719Y001765D02*
X008441Y001765D01*
X008522Y001607D02*
X008638Y001607D01*
X008623Y001448D02*
X008537Y001448D01*
X008496Y001290D02*
X008664Y001290D01*
X008783Y001131D02*
X008377Y001131D01*
X007783Y001131D02*
X007377Y001131D01*
X007496Y001290D02*
X007664Y001290D01*
X007623Y001448D02*
X007537Y001448D01*
X007522Y001607D02*
X007638Y001607D01*
X007719Y001765D02*
X007441Y001765D01*
X006719Y001765D02*
X006441Y001765D01*
X006522Y001607D02*
X006638Y001607D01*
X006623Y001448D02*
X006537Y001448D01*
X006496Y001290D02*
X006664Y001290D01*
X006783Y001131D02*
X006377Y001131D01*
X005783Y001131D02*
X005377Y001131D01*
X005496Y001290D02*
X005664Y001290D01*
X005623Y001448D02*
X005537Y001448D01*
X005522Y001607D02*
X005638Y001607D01*
X005719Y001765D02*
X005441Y001765D01*
X004783Y001131D02*
X004377Y001131D01*
X004496Y001290D02*
X004664Y001290D01*
X004623Y001448D02*
X004537Y001448D01*
X004522Y001607D02*
X004638Y001607D01*
X004719Y001765D02*
X004441Y001765D01*
X003719Y001765D02*
X003241Y001765D01*
X003322Y001607D02*
X003638Y001607D01*
X003623Y001448D02*
X003337Y001448D01*
X003296Y001290D02*
X003664Y001290D01*
X003783Y001131D02*
X003177Y001131D01*
X002583Y001131D02*
X002177Y001131D01*
X002296Y001290D02*
X002464Y001290D01*
X002423Y001448D02*
X002337Y001448D01*
X002322Y001607D02*
X002438Y001607D01*
X002519Y001765D02*
X002241Y001765D01*
X001519Y001765D02*
X001241Y001765D01*
X001322Y001607D02*
X001438Y001607D01*
X001423Y001448D02*
X001337Y001448D01*
X001296Y001290D02*
X001464Y001290D01*
X001583Y001131D02*
X001177Y001131D01*
X000660Y000814D02*
X010992Y000814D01*
X009486Y002241D02*
X000660Y002241D01*
X000660Y002399D02*
X009425Y002399D01*
X009425Y002558D02*
X000660Y002558D01*
X000660Y002716D02*
X009485Y002716D01*
X009542Y002875D02*
X000660Y002875D01*
X000660Y003033D02*
X009448Y003033D01*
X009425Y003192D02*
X000660Y003192D01*
X000660Y003350D02*
X009458Y003350D01*
X009565Y003509D02*
X000660Y003509D01*
X000660Y003667D02*
X001949Y003667D01*
X001924Y003692D02*
X002042Y003574D01*
X002196Y003510D01*
X002364Y003510D01*
X002518Y003574D01*
X002636Y003692D01*
X002700Y003846D01*
X002700Y004014D01*
X002636Y004168D01*
X002518Y004286D01*
X002364Y004350D01*
X002196Y004350D01*
X002042Y004286D01*
X001924Y004168D01*
X001860Y004014D01*
X001860Y003846D01*
X001924Y003692D01*
X001869Y003826D02*
X000660Y003826D01*
X000660Y003984D02*
X001860Y003984D01*
X001913Y004143D02*
X000660Y004143D01*
X000660Y004301D02*
X002078Y004301D01*
X002482Y004301D02*
X009677Y004301D01*
X009623Y004143D02*
X002647Y004143D01*
X002700Y003984D02*
X009625Y003984D01*
X009691Y003826D02*
X002691Y003826D01*
X002611Y003667D02*
X009883Y003667D01*
X010195Y003509D02*
X010265Y003509D01*
X010277Y003667D02*
X010992Y003667D01*
X010992Y003509D02*
X010895Y003509D01*
X010992Y003826D02*
X010469Y003826D01*
X010535Y003984D02*
X010992Y003984D01*
X010992Y004143D02*
X010537Y004143D01*
X010483Y004301D02*
X010992Y004301D01*
X010992Y004460D02*
X010347Y004460D01*
X010339Y004693D02*
X010467Y004821D01*
X010537Y004989D01*
X010537Y005171D01*
X010467Y005339D01*
X010339Y005467D01*
X010171Y005537D01*
X009989Y005537D01*
X009821Y005467D01*
X009693Y005339D01*
X009623Y005171D01*
X009623Y004989D01*
X009693Y004821D01*
X009821Y004693D01*
X009989Y004623D01*
X010171Y004623D01*
X010339Y004693D01*
X010423Y004777D02*
X010992Y004777D01*
X010992Y004935D02*
X010514Y004935D01*
X010537Y005094D02*
X010992Y005094D01*
X010992Y005252D02*
X010503Y005252D01*
X010396Y005411D02*
X010992Y005411D01*
X010992Y005569D02*
X005831Y005569D01*
X005838Y005566D02*
X005671Y005635D01*
X005489Y005635D01*
X005322Y005566D01*
X005194Y005438D01*
X005125Y005271D01*
X005125Y005089D01*
X005194Y004922D01*
X005322Y004794D01*
X005489Y004725D01*
X005671Y004725D01*
X005838Y004794D01*
X005966Y004922D01*
X006035Y005089D01*
X006035Y005271D01*
X005966Y005438D01*
X005838Y005566D01*
X005977Y005411D02*
X009764Y005411D01*
X009657Y005252D02*
X006035Y005252D01*
X006035Y005094D02*
X009623Y005094D01*
X009646Y004935D02*
X005971Y004935D01*
X005796Y004777D02*
X009737Y004777D01*
X009813Y004460D02*
X000660Y004460D01*
X000660Y004618D02*
X010992Y004618D01*
X010339Y005693D02*
X010171Y005623D01*
X009989Y005623D01*
X009821Y005693D01*
X009693Y005821D01*
X009623Y005989D01*
X009623Y006171D01*
X009693Y006339D01*
X009821Y006467D01*
X009989Y006537D01*
X010171Y006537D01*
X010339Y006467D01*
X010467Y006339D01*
X010537Y006171D01*
X010537Y005989D01*
X010467Y005821D01*
X010339Y005693D01*
X010374Y005728D02*
X010992Y005728D01*
X010992Y005886D02*
X010494Y005886D01*
X010537Y006045D02*
X010992Y006045D01*
X010992Y006203D02*
X010524Y006203D01*
X010445Y006362D02*
X010992Y006362D01*
X010992Y006520D02*
X010212Y006520D01*
X010171Y006623D02*
X010339Y006693D01*
X010467Y006821D01*
X010537Y006989D01*
X010537Y007171D01*
X010467Y007339D01*
X010339Y007467D01*
X010171Y007537D01*
X009989Y007537D01*
X009821Y007467D01*
X009693Y007339D01*
X009623Y007171D01*
X009623Y006989D01*
X009693Y006821D01*
X009821Y006693D01*
X009989Y006623D01*
X010171Y006623D01*
X010305Y006679D02*
X010992Y006679D01*
X010992Y006837D02*
X010474Y006837D01*
X010537Y006996D02*
X010992Y006996D01*
X010992Y007154D02*
X010537Y007154D01*
X010478Y007313D02*
X010992Y007313D01*
X010992Y007471D02*
X010330Y007471D01*
X010186Y007630D02*
X010992Y007630D01*
X010992Y007788D02*
X010434Y007788D01*
X010467Y007821D02*
X010537Y007989D01*
X010537Y008171D01*
X010467Y008339D01*
X010339Y008467D01*
X010171Y008537D01*
X009989Y008537D01*
X009821Y008467D01*
X009693Y008339D01*
X009623Y008171D01*
X009623Y007989D01*
X009693Y007821D01*
X009821Y007693D01*
X009989Y007623D01*
X010171Y007623D01*
X010339Y007693D01*
X010467Y007821D01*
X010519Y007947D02*
X010992Y007947D01*
X010992Y008105D02*
X010537Y008105D01*
X010498Y008264D02*
X010992Y008264D01*
X010992Y008422D02*
X010384Y008422D01*
X010339Y008693D02*
X010467Y008821D01*
X010537Y008989D01*
X010537Y009171D01*
X010467Y009339D01*
X010339Y009467D01*
X010171Y009537D01*
X009989Y009537D01*
X009821Y009467D01*
X009693Y009339D01*
X009623Y009171D01*
X009623Y008989D01*
X009693Y008821D01*
X009821Y008693D01*
X009989Y008623D01*
X010171Y008623D01*
X010339Y008693D01*
X010385Y008739D02*
X010992Y008739D01*
X010992Y008581D02*
X001826Y008581D01*
X001867Y008539D02*
X001739Y008667D01*
X001571Y008737D01*
X001389Y008737D01*
X001221Y008667D01*
X001093Y008539D01*
X001023Y008371D01*
X001023Y008189D01*
X001093Y008021D01*
X001221Y007893D01*
X001389Y007823D01*
X001571Y007823D01*
X001739Y007893D01*
X001867Y008021D01*
X001937Y008189D01*
X001937Y008371D01*
X001867Y008539D01*
X001916Y008422D02*
X009776Y008422D01*
X009662Y008264D02*
X001937Y008264D01*
X001902Y008105D02*
X009623Y008105D01*
X009641Y007947D02*
X001793Y007947D01*
X001739Y007667D02*
X001571Y007737D01*
X001389Y007737D01*
X001221Y007667D01*
X001093Y007539D01*
X001023Y007371D01*
X001023Y007189D01*
X001093Y007021D01*
X001221Y006893D01*
X001389Y006823D01*
X001571Y006823D01*
X001739Y006893D01*
X001867Y007021D01*
X001937Y007189D01*
X001937Y007371D01*
X001867Y007539D01*
X001739Y007667D01*
X001777Y007630D02*
X009974Y007630D01*
X009830Y007471D02*
X001895Y007471D01*
X001937Y007313D02*
X009682Y007313D01*
X009623Y007154D02*
X001922Y007154D01*
X001842Y006996D02*
X009623Y006996D01*
X009686Y006837D02*
X001604Y006837D01*
X001356Y006837D02*
X000660Y006837D01*
X000660Y006679D02*
X009855Y006679D01*
X009948Y006520D02*
X000660Y006520D01*
X000660Y006362D02*
X009715Y006362D01*
X009636Y006203D02*
X002477Y006203D01*
X002518Y006186D02*
X002364Y006250D01*
X002196Y006250D01*
X002042Y006186D01*
X001924Y006068D01*
X001860Y005914D01*
X001860Y005746D01*
X001924Y005592D01*
X002042Y005474D01*
X002196Y005410D01*
X002364Y005410D01*
X002518Y005474D01*
X002636Y005592D01*
X002700Y005746D01*
X002700Y005914D01*
X002636Y006068D01*
X002518Y006186D01*
X002646Y006045D02*
X009623Y006045D01*
X009666Y005886D02*
X002700Y005886D01*
X002692Y005728D02*
X009786Y005728D01*
X009726Y007788D02*
X000660Y007788D01*
X000660Y007947D02*
X001167Y007947D01*
X001058Y008105D02*
X000660Y008105D01*
X000660Y008264D02*
X001023Y008264D01*
X001044Y008422D02*
X000660Y008422D01*
X000660Y008581D02*
X001134Y008581D01*
X001221Y008893D02*
X001389Y008823D01*
X001571Y008823D01*
X001739Y008893D01*
X001867Y009021D01*
X001937Y009189D01*
X001937Y009371D01*
X001867Y009539D01*
X001739Y009667D01*
X001571Y009737D01*
X001389Y009737D01*
X001221Y009667D01*
X001093Y009539D01*
X001023Y009371D01*
X001023Y009189D01*
X001093Y009021D01*
X001221Y008893D01*
X001216Y008898D02*
X000660Y008898D01*
X000660Y009056D02*
X001078Y009056D01*
X001023Y009215D02*
X000660Y009215D01*
X000660Y009373D02*
X001024Y009373D01*
X001090Y009532D02*
X000660Y009532D01*
X000660Y009690D02*
X001276Y009690D01*
X001297Y009838D02*
X001230Y009872D01*
X001169Y009916D01*
X001116Y009969D01*
X001072Y010030D01*
X001038Y010097D01*
X001015Y010168D01*
X001003Y010242D01*
X001003Y010262D01*
X001462Y010262D01*
X001498Y010262D01*
X001498Y010298D01*
X001957Y010298D01*
X001957Y010318D01*
X001945Y010392D01*
X001922Y010463D01*
X001888Y010530D01*
X001844Y010591D01*
X001791Y010644D01*
X001730Y010688D01*
X001663Y010722D01*
X001592Y010745D01*
X001518Y010757D01*
X001498Y010757D01*
X001498Y010298D01*
X001462Y010298D01*
X001462Y010262D01*
X001462Y009803D01*
X001442Y009803D01*
X001368Y009815D01*
X001297Y009838D01*
X001276Y009849D02*
X000660Y009849D01*
X000660Y010007D02*
X001089Y010007D01*
X001016Y010166D02*
X000660Y010166D01*
X000660Y010324D02*
X001004Y010324D01*
X001003Y010318D02*
X001015Y010392D01*
X001038Y010463D01*
X001072Y010530D01*
X001116Y010591D01*
X001169Y010644D01*
X001230Y010688D01*
X001297Y010722D01*
X001368Y010745D01*
X001442Y010757D01*
X001462Y010757D01*
X001462Y010298D01*
X001003Y010298D01*
X001003Y010318D01*
X001048Y010483D02*
X000660Y010483D01*
X000660Y010641D02*
X001167Y010641D01*
X001462Y010641D02*
X001498Y010641D01*
X001498Y010483D02*
X001462Y010483D01*
X001462Y010324D02*
X001498Y010324D01*
X001498Y010262D02*
X001957Y010262D01*
X001957Y010242D01*
X001945Y010168D01*
X001922Y010097D01*
X001888Y010030D01*
X001844Y009969D01*
X001791Y009916D01*
X001730Y009872D01*
X001663Y009838D01*
X001592Y009815D01*
X001518Y009803D01*
X001498Y009803D01*
X001498Y010262D01*
X001498Y010166D02*
X001462Y010166D01*
X001462Y010007D02*
X001498Y010007D01*
X001498Y009849D02*
X001462Y009849D01*
X001684Y009849D02*
X010992Y009849D01*
X010992Y010007D02*
X001871Y010007D01*
X001944Y010166D02*
X010992Y010166D01*
X010992Y009690D02*
X001684Y009690D01*
X001870Y009532D02*
X009976Y009532D01*
X010184Y009532D02*
X010992Y009532D01*
X010992Y009373D02*
X010433Y009373D01*
X010519Y009215D02*
X010992Y009215D01*
X010992Y009056D02*
X010537Y009056D01*
X010499Y008898D02*
X010992Y008898D01*
X009775Y008739D02*
X000660Y008739D01*
X000660Y007630D02*
X001183Y007630D01*
X001065Y007471D02*
X000660Y007471D01*
X000660Y007313D02*
X001023Y007313D01*
X001038Y007154D02*
X000660Y007154D01*
X000660Y006996D02*
X001118Y006996D01*
X000660Y006203D02*
X002083Y006203D01*
X001914Y006045D02*
X000660Y006045D01*
X000660Y005886D02*
X001860Y005886D01*
X001868Y005728D02*
X000660Y005728D01*
X000660Y005569D02*
X001947Y005569D01*
X002195Y005411D02*
X000660Y005411D01*
X000660Y005252D02*
X005125Y005252D01*
X005125Y005094D02*
X000660Y005094D01*
X000660Y004935D02*
X005189Y004935D01*
X005364Y004777D02*
X000660Y004777D01*
X002365Y005411D02*
X005183Y005411D01*
X005329Y005569D02*
X002613Y005569D01*
X001744Y008898D02*
X009661Y008898D01*
X009623Y009056D02*
X001882Y009056D01*
X001937Y009215D02*
X009641Y009215D01*
X009727Y009373D02*
X001936Y009373D01*
X001956Y010324D02*
X008691Y010324D01*
X008677Y010334D02*
X008738Y010289D01*
X008806Y010255D01*
X008878Y010232D01*
X008952Y010220D01*
X008970Y010220D01*
X008970Y010680D01*
X008510Y010680D01*
X008510Y010662D01*
X008522Y010588D01*
X008545Y010516D01*
X008579Y010448D01*
X008624Y010387D01*
X008677Y010334D01*
X008562Y010483D02*
X001912Y010483D01*
X001793Y010641D02*
X008513Y010641D01*
X008510Y010720D02*
X008970Y010720D01*
X008970Y011180D01*
X008952Y011180D01*
X008878Y011168D01*
X008806Y011145D01*
X008738Y011111D01*
X008677Y011066D01*
X008624Y011013D01*
X008579Y010952D01*
X008545Y010884D01*
X008522Y010812D01*
X008510Y010738D01*
X008510Y010720D01*
X008520Y010800D02*
X000660Y010800D01*
X000660Y010958D02*
X008584Y010958D01*
X008750Y011117D02*
X000660Y011117D01*
X000660Y011275D02*
X010992Y011275D01*
X010992Y011117D02*
X010966Y011117D01*
X010992Y011434D02*
X008477Y011434D01*
X008438Y011394D02*
X008566Y011522D01*
X008635Y011689D01*
X008635Y011871D01*
X008566Y012038D01*
X008438Y012166D01*
X008271Y012235D01*
X008089Y012235D01*
X007922Y012166D01*
X007794Y012038D01*
X007725Y011871D01*
X007725Y011689D01*
X007794Y011522D01*
X007922Y011394D01*
X008089Y011325D01*
X008271Y011325D01*
X008438Y011394D01*
X008595Y011592D02*
X010992Y011592D01*
X010992Y011751D02*
X008635Y011751D01*
X008619Y011909D02*
X010992Y011909D01*
X010992Y012068D02*
X008536Y012068D01*
X008293Y012226D02*
X010992Y012226D01*
X010992Y012385D02*
X003635Y012385D01*
X003635Y012471D02*
X003635Y012289D01*
X003566Y012122D01*
X003438Y011994D01*
X003271Y011925D01*
X003089Y011925D01*
X002922Y011994D01*
X002794Y012122D01*
X002725Y012289D01*
X002725Y012471D01*
X002794Y012638D01*
X002922Y012766D01*
X003089Y012835D01*
X003271Y012835D01*
X003438Y012766D01*
X003566Y012638D01*
X003635Y012471D01*
X003605Y012543D02*
X010992Y012543D01*
X010992Y012702D02*
X003502Y012702D01*
X003630Y012872D02*
X003697Y012838D01*
X003768Y012815D01*
X003842Y012803D01*
X003862Y012803D01*
X003862Y013262D01*
X003403Y013262D01*
X003403Y013242D01*
X003415Y013168D01*
X003438Y013097D01*
X003472Y013030D01*
X003516Y012969D01*
X003569Y012916D01*
X003630Y012872D01*
X003654Y012860D02*
X003060Y012860D01*
X003139Y012893D02*
X003267Y013021D01*
X003337Y013189D01*
X003337Y013371D01*
X003267Y013539D01*
X003139Y013667D01*
X002971Y013737D01*
X002789Y013737D01*
X002621Y013667D01*
X002493Y013539D01*
X002423Y013371D01*
X002423Y013189D01*
X002493Y013021D01*
X002621Y012893D01*
X002789Y012823D01*
X002971Y012823D01*
X003139Y012893D01*
X003265Y013019D02*
X003481Y013019D01*
X003414Y013177D02*
X003332Y013177D01*
X003403Y013298D02*
X003403Y013318D01*
X003415Y013392D01*
X003438Y013463D01*
X003472Y013530D01*
X003516Y013591D01*
X003569Y013644D01*
X003630Y013688D01*
X003697Y013722D01*
X003768Y013745D01*
X003842Y013757D01*
X003862Y013757D01*
X003862Y013298D01*
X003862Y013262D01*
X003898Y013262D01*
X003898Y013298D01*
X003862Y013298D01*
X003403Y013298D01*
X003406Y013336D02*
X003337Y013336D01*
X003286Y013494D02*
X003454Y013494D01*
X003581Y013653D02*
X003154Y013653D01*
X002606Y013653D02*
X002154Y013653D01*
X002139Y013667D02*
X001971Y013737D01*
X001789Y013737D01*
X001621Y013667D01*
X001493Y013539D01*
X001423Y013371D01*
X001423Y013189D01*
X001493Y013021D01*
X001621Y012893D01*
X001789Y012823D01*
X001971Y012823D01*
X002139Y012893D01*
X002267Y013021D01*
X002337Y013189D01*
X002337Y013371D01*
X002267Y013539D01*
X002139Y013667D01*
X002286Y013494D02*
X002474Y013494D01*
X002423Y013336D02*
X002337Y013336D01*
X002332Y013177D02*
X002428Y013177D01*
X002495Y013019D02*
X002265Y013019D01*
X002060Y012860D02*
X002700Y012860D01*
X002858Y012702D02*
X000660Y012702D01*
X000660Y012860D02*
X000700Y012860D01*
X000660Y012543D02*
X002755Y012543D01*
X002725Y012385D02*
X000660Y012385D01*
X000660Y012226D02*
X002751Y012226D01*
X002849Y012068D02*
X000660Y012068D01*
X000660Y011909D02*
X007741Y011909D01*
X007725Y011751D02*
X000660Y011751D01*
X000660Y011592D02*
X007765Y011592D01*
X007883Y011434D02*
X000660Y011434D01*
X001060Y012860D02*
X001700Y012860D01*
X001495Y013019D02*
X001265Y013019D01*
X001332Y013177D02*
X001428Y013177D01*
X001423Y013336D02*
X001337Y013336D01*
X001286Y013494D02*
X001474Y013494D01*
X001606Y013653D02*
X001154Y013653D01*
X000660Y013811D02*
X010992Y013811D01*
X010992Y013970D02*
X000660Y013970D01*
X000660Y014128D02*
X010992Y014128D01*
X010516Y013653D02*
X009266Y013653D01*
X009242Y013671D02*
X009303Y013626D01*
X009356Y013573D01*
X009401Y013512D01*
X009435Y013444D01*
X009458Y013372D01*
X009470Y013298D01*
X009470Y013280D01*
X009010Y013280D01*
X008970Y013280D01*
X008970Y013740D01*
X008952Y013740D01*
X008878Y013728D01*
X008806Y013705D01*
X008738Y013671D01*
X008677Y013626D01*
X008624Y013573D01*
X008579Y013512D01*
X008545Y013444D01*
X008537Y013418D01*
X008522Y013463D01*
X008488Y013530D01*
X008444Y013591D01*
X008391Y013644D01*
X008330Y013688D01*
X008263Y013722D01*
X008192Y013745D01*
X008118Y013757D01*
X008098Y013757D01*
X008098Y013298D01*
X008062Y013298D01*
X008062Y013262D01*
X007603Y013262D01*
X007603Y013242D01*
X007615Y013168D01*
X007638Y013097D01*
X007672Y013030D01*
X007716Y012969D01*
X007769Y012916D01*
X007830Y012872D01*
X007897Y012838D01*
X007968Y012815D01*
X008042Y012803D01*
X008062Y012803D01*
X008062Y013262D01*
X008098Y013262D01*
X008098Y012803D01*
X008118Y012803D01*
X008192Y012815D01*
X008263Y012838D01*
X008330Y012872D01*
X008391Y012916D01*
X008444Y012969D01*
X008488Y013030D01*
X008522Y013097D01*
X008530Y013122D01*
X008545Y013076D01*
X008579Y013008D01*
X008624Y012947D01*
X008677Y012894D01*
X008738Y012849D01*
X008806Y012815D01*
X008878Y012792D01*
X008952Y012780D01*
X008970Y012780D01*
X008970Y013240D01*
X009010Y013240D01*
X009010Y013280D01*
X009010Y013740D01*
X009028Y013740D01*
X009102Y013728D01*
X009174Y013705D01*
X009242Y013671D01*
X009010Y013653D02*
X008970Y013653D01*
X008970Y013494D02*
X009010Y013494D01*
X009010Y013336D02*
X008970Y013336D01*
X008970Y013280D02*
X008970Y013240D01*
X008556Y013240D01*
X008557Y013242D01*
X008557Y013262D01*
X008098Y013262D01*
X008098Y013298D01*
X008510Y013298D01*
X008510Y013280D01*
X008970Y013280D01*
X009010Y013240D02*
X009010Y012780D01*
X009028Y012780D01*
X009102Y012792D01*
X009174Y012815D01*
X009242Y012849D01*
X009303Y012894D01*
X009356Y012947D01*
X009401Y013008D01*
X009435Y013076D01*
X009458Y013148D01*
X009470Y013222D01*
X009470Y013240D01*
X009010Y013240D01*
X009010Y013177D02*
X008970Y013177D01*
X008970Y013019D02*
X009010Y013019D01*
X009010Y012860D02*
X008970Y012860D01*
X008724Y012860D02*
X008306Y012860D01*
X008098Y012860D02*
X008062Y012860D01*
X008062Y013019D02*
X008098Y013019D01*
X008098Y013177D02*
X008062Y013177D01*
X008062Y013298D02*
X007603Y013298D01*
X007603Y013318D01*
X007615Y013392D01*
X007638Y013463D01*
X007672Y013530D01*
X007716Y013591D01*
X007769Y013644D01*
X007830Y013688D01*
X007897Y013722D01*
X007968Y013745D01*
X008042Y013757D01*
X008062Y013757D01*
X008062Y013298D01*
X008062Y013336D02*
X008098Y013336D01*
X008098Y013494D02*
X008062Y013494D01*
X008062Y013653D02*
X008098Y013653D01*
X007781Y013653D02*
X007354Y013653D01*
X007339Y013667D02*
X007171Y013737D01*
X006989Y013737D01*
X006821Y013667D01*
X006693Y013539D01*
X006623Y013371D01*
X006623Y013189D01*
X006693Y013021D01*
X006821Y012893D01*
X006989Y012823D01*
X007171Y012823D01*
X007339Y012893D01*
X007467Y013021D01*
X007537Y013189D01*
X007537Y013371D01*
X007467Y013539D01*
X007339Y013667D01*
X007486Y013494D02*
X007654Y013494D01*
X007606Y013336D02*
X007537Y013336D01*
X007532Y013177D02*
X007614Y013177D01*
X007681Y013019D02*
X007465Y013019D01*
X007260Y012860D02*
X007854Y012860D01*
X008067Y012226D02*
X003609Y012226D01*
X003511Y012068D02*
X007824Y012068D01*
X008479Y013019D02*
X008574Y013019D01*
X008510Y013298D02*
X008510Y013298D01*
X008506Y013494D02*
X008571Y013494D01*
X008714Y013653D02*
X008379Y013653D01*
X009256Y012860D02*
X010534Y012860D01*
X010372Y013019D02*
X009406Y013019D01*
X009463Y013177D02*
X010310Y013177D01*
X010310Y013336D02*
X009464Y013336D01*
X009409Y013494D02*
X010369Y013494D01*
X010574Y011117D02*
X009230Y011117D01*
X009242Y011111D02*
X009174Y011145D01*
X009102Y011168D01*
X009028Y011180D01*
X009010Y011180D01*
X009010Y010720D01*
X008970Y010720D01*
X008970Y010680D01*
X009010Y010680D01*
X009010Y010720D01*
X009470Y010720D01*
X009470Y010738D01*
X009458Y010812D01*
X009435Y010884D01*
X009401Y010952D01*
X009356Y011013D01*
X009303Y011066D01*
X009242Y011111D01*
X009396Y010958D02*
X010379Y010958D01*
X010313Y010800D02*
X009460Y010800D01*
X009470Y010680D02*
X009010Y010680D01*
X009010Y010220D01*
X009028Y010220D01*
X009102Y010232D01*
X009174Y010255D01*
X009242Y010289D01*
X009303Y010334D01*
X009356Y010387D01*
X009401Y010448D01*
X009435Y010516D01*
X009458Y010588D01*
X009470Y010662D01*
X009470Y010680D01*
X009467Y010641D02*
X010310Y010641D01*
X010362Y010483D02*
X009418Y010483D01*
X009289Y010324D02*
X010495Y010324D01*
X009010Y010324D02*
X008970Y010324D01*
X008970Y010483D02*
X009010Y010483D01*
X009010Y010641D02*
X008970Y010641D01*
X008970Y010800D02*
X009010Y010800D01*
X009010Y010958D02*
X008970Y010958D01*
X008970Y011117D02*
X009010Y011117D01*
X006900Y012860D02*
X006260Y012860D01*
X006339Y012893D02*
X006467Y013021D01*
X006537Y013189D01*
X006537Y013371D01*
X006467Y013539D01*
X006339Y013667D01*
X006171Y013737D01*
X005989Y013737D01*
X005821Y013667D01*
X005693Y013539D01*
X005623Y013371D01*
X005623Y013189D01*
X005693Y013021D01*
X005821Y012893D01*
X005989Y012823D01*
X006171Y012823D01*
X006339Y012893D01*
X006465Y013019D02*
X006695Y013019D01*
X006628Y013177D02*
X006532Y013177D01*
X006537Y013336D02*
X006623Y013336D01*
X006674Y013494D02*
X006486Y013494D01*
X006354Y013653D02*
X006806Y013653D01*
X005806Y013653D02*
X005354Y013653D01*
X005339Y013667D02*
X005171Y013737D01*
X004989Y013737D01*
X004821Y013667D01*
X004693Y013539D01*
X004623Y013371D01*
X004623Y013189D01*
X004693Y013021D01*
X004821Y012893D01*
X004989Y012823D01*
X005171Y012823D01*
X005339Y012893D01*
X005467Y013021D01*
X005537Y013189D01*
X005537Y013371D01*
X005467Y013539D01*
X005339Y013667D01*
X005486Y013494D02*
X005674Y013494D01*
X005623Y013336D02*
X005537Y013336D01*
X005532Y013177D02*
X005628Y013177D01*
X005695Y013019D02*
X005465Y013019D01*
X005260Y012860D02*
X005900Y012860D01*
X004900Y012860D02*
X004106Y012860D01*
X004130Y012872D02*
X004063Y012838D01*
X003992Y012815D01*
X003918Y012803D01*
X003898Y012803D01*
X003898Y013262D01*
X004357Y013262D01*
X004357Y013242D01*
X004345Y013168D01*
X004322Y013097D01*
X004288Y013030D01*
X004244Y012969D01*
X004191Y012916D01*
X004130Y012872D01*
X004279Y013019D02*
X004695Y013019D01*
X004628Y013177D02*
X004346Y013177D01*
X004357Y013298D02*
X004357Y013318D01*
X004345Y013392D01*
X004322Y013463D01*
X004288Y013530D01*
X004244Y013591D01*
X004191Y013644D01*
X004130Y013688D01*
X004063Y013722D01*
X003992Y013745D01*
X003918Y013757D01*
X003898Y013757D01*
X003898Y013298D01*
X004357Y013298D01*
X004354Y013336D02*
X004623Y013336D01*
X004674Y013494D02*
X004306Y013494D01*
X004179Y013653D02*
X004806Y013653D01*
X003898Y013653D02*
X003862Y013653D01*
X003862Y013494D02*
X003898Y013494D01*
X003898Y013336D02*
X003862Y013336D01*
X003862Y013177D02*
X003898Y013177D01*
X003898Y013019D02*
X003862Y013019D01*
X003862Y012860D02*
X003898Y012860D01*
D15*
X003180Y012380D03*
X004680Y010480D03*
X002980Y009980D03*
X006280Y006580D03*
X005580Y005180D03*
X001680Y004880D03*
X008180Y011780D03*
X009880Y003180D03*
X009880Y002480D03*
X010580Y002480D03*
X010580Y003180D03*
M02*
