%
M48
M72
T01C0.0320
T02C0.0394
T03C0.0400
%
T01
X2280Y3930
X2280Y5830
T02
X880Y1480
X1880Y1480
X2880Y1480
X4080Y1480
X5080Y1480
X6080Y1480
X7080Y1480
X8080Y1480
X9080Y1480
X9880Y2480
X9880Y3180
X10580Y3180
X10580Y2480
X10080Y4080
X10080Y5080
X10080Y6080
X10080Y7080
X10080Y8080
X10080Y9080
X8180Y11780
X8080Y13280
X7080Y13280
X6080Y13280
X5080Y13280
X3880Y13280
X3180Y12380
X2880Y13280
X1880Y13280
X880Y13280
X1480Y10280
X1480Y9280
X1480Y8280
X1480Y7280
X1680Y4880
X5580Y5180
X6280Y6580
X4680Y10480
X2980Y9980
T03
X8990Y10700
X10770Y10700
X10770Y13260
X8990Y13260
M30
