G75*
G70*
%OFA0B0*%
%FSLAX24Y24*%
%IPPOS*%
%LPD*%
%AMOC8*
5,1,8,0,0,1.08239X$1,22.5*
%
%ADD10C,0.0000*%
%ADD11C,0.0060*%
%ADD12C,0.0030*%
%ADD13C,0.0040*%
%ADD14C,0.0020*%
%ADD15C,0.0050*%
%ADD16C,0.0100*%
%ADD17R,0.0059X0.0118*%
%ADD18R,0.0118X0.0118*%
D10*
X000180Y000180D02*
X000180Y014750D01*
X011472Y014750D01*
X011472Y000180D01*
X000180Y000180D01*
D11*
X004300Y004200D02*
X004300Y006820D01*
X004440Y006960D01*
X007060Y006960D01*
X007060Y004200D01*
X004300Y004200D01*
X004459Y006660D02*
X004461Y006683D01*
X004467Y006706D01*
X004476Y006727D01*
X004489Y006747D01*
X004505Y006764D01*
X004523Y006778D01*
X004543Y006789D01*
X004565Y006797D01*
X004588Y006801D01*
X004612Y006801D01*
X004635Y006797D01*
X004657Y006789D01*
X004677Y006778D01*
X004695Y006764D01*
X004711Y006747D01*
X004724Y006727D01*
X004733Y006706D01*
X004739Y006683D01*
X004741Y006660D01*
X004739Y006637D01*
X004733Y006614D01*
X004724Y006593D01*
X004711Y006573D01*
X004695Y006556D01*
X004677Y006542D01*
X004657Y006531D01*
X004635Y006523D01*
X004612Y006519D01*
X004588Y006519D01*
X004565Y006523D01*
X004543Y006531D01*
X004523Y006542D01*
X004505Y006556D01*
X004489Y006573D01*
X004476Y006593D01*
X004467Y006614D01*
X004461Y006637D01*
X004459Y006660D01*
X008680Y011130D02*
X008680Y011530D01*
X008680Y012480D01*
X008680Y012830D01*
X009480Y013180D02*
X009580Y013180D01*
X009580Y013280D01*
X010180Y013280D01*
X010180Y013180D01*
X010280Y013180D01*
X011080Y012830D02*
X011080Y012480D01*
X011080Y011480D01*
X011080Y011130D01*
X010280Y010780D02*
X010180Y010780D01*
X010180Y010680D01*
X009580Y010680D01*
X009580Y010780D01*
X009480Y010780D01*
X009780Y011980D02*
X009782Y012000D01*
X009788Y012018D01*
X009797Y012036D01*
X009809Y012051D01*
X009824Y012063D01*
X009842Y012072D01*
X009860Y012078D01*
X009880Y012080D01*
X009900Y012078D01*
X009918Y012072D01*
X009936Y012063D01*
X009951Y012051D01*
X009963Y012036D01*
X009972Y012018D01*
X009978Y012000D01*
X009980Y011980D01*
X009978Y011960D01*
X009972Y011942D01*
X009963Y011924D01*
X009951Y011909D01*
X009936Y011897D01*
X009918Y011888D01*
X009900Y011882D01*
X009880Y011880D01*
X009860Y011882D01*
X009842Y011888D01*
X009824Y011897D01*
X009809Y011909D01*
X009797Y011924D01*
X009788Y011942D01*
X009782Y011960D01*
X009780Y011980D01*
X009180Y011980D02*
X009182Y012032D01*
X009188Y012084D01*
X009198Y012136D01*
X009211Y012186D01*
X009228Y012236D01*
X009249Y012284D01*
X009274Y012330D01*
X009302Y012374D01*
X009333Y012416D01*
X009367Y012456D01*
X009404Y012493D01*
X009444Y012527D01*
X009486Y012558D01*
X009530Y012586D01*
X009576Y012611D01*
X009624Y012632D01*
X009674Y012649D01*
X009724Y012662D01*
X009776Y012672D01*
X009828Y012678D01*
X009880Y012680D01*
X009932Y012678D01*
X009984Y012672D01*
X010036Y012662D01*
X010086Y012649D01*
X010136Y012632D01*
X010184Y012611D01*
X010230Y012586D01*
X010274Y012558D01*
X010316Y012527D01*
X010356Y012493D01*
X010393Y012456D01*
X010427Y012416D01*
X010458Y012374D01*
X010486Y012330D01*
X010511Y012284D01*
X010532Y012236D01*
X010549Y012186D01*
X010562Y012136D01*
X010572Y012084D01*
X010578Y012032D01*
X010580Y011980D01*
X010578Y011928D01*
X010572Y011876D01*
X010562Y011824D01*
X010549Y011774D01*
X010532Y011724D01*
X010511Y011676D01*
X010486Y011630D01*
X010458Y011586D01*
X010427Y011544D01*
X010393Y011504D01*
X010356Y011467D01*
X010316Y011433D01*
X010274Y011402D01*
X010230Y011374D01*
X010184Y011349D01*
X010136Y011328D01*
X010086Y011311D01*
X010036Y011298D01*
X009984Y011288D01*
X009932Y011282D01*
X009880Y011280D01*
X009828Y011282D01*
X009776Y011288D01*
X009724Y011298D01*
X009674Y011311D01*
X009624Y011328D01*
X009576Y011349D01*
X009530Y011374D01*
X009486Y011402D01*
X009444Y011433D01*
X009404Y011467D01*
X009367Y011504D01*
X009333Y011544D01*
X009302Y011586D01*
X009274Y011630D01*
X009249Y011676D01*
X009228Y011724D01*
X009211Y011774D01*
X009198Y011824D01*
X009188Y011876D01*
X009182Y011928D01*
X009180Y011980D01*
D12*
X005290Y007595D02*
X005096Y007595D01*
X005193Y007595D02*
X005193Y007885D01*
X005096Y007788D01*
X004995Y007837D02*
X004947Y007885D01*
X004850Y007885D01*
X004801Y007837D01*
X004801Y007643D01*
X004850Y007595D01*
X004947Y007595D01*
X004995Y007643D01*
X004702Y007595D02*
X004605Y007595D01*
X004653Y007595D02*
X004653Y007885D01*
X004605Y007885D02*
X004702Y007885D01*
D13*
X003260Y008958D02*
X003260Y009265D01*
X003260Y009419D02*
X003260Y009726D01*
X003260Y009879D02*
X003260Y010109D01*
X003183Y010186D01*
X002876Y010186D01*
X002800Y010109D01*
X002800Y009879D01*
X003260Y009879D01*
X003030Y009572D02*
X003030Y009419D01*
X002800Y009419D02*
X003260Y009419D01*
X003260Y008958D02*
X002800Y008958D01*
X002800Y009419D02*
X002800Y009726D01*
X002953Y010340D02*
X002800Y010493D01*
X003260Y010493D01*
X003260Y010340D02*
X003260Y010647D01*
X002213Y011000D02*
X002093Y011120D01*
X002153Y011120D02*
X001973Y011120D01*
X001973Y011000D02*
X001973Y011360D01*
X002153Y011360D01*
X002213Y011300D01*
X002213Y011180D01*
X002153Y011120D01*
X001845Y011060D02*
X001845Y011300D01*
X001785Y011360D01*
X001665Y011360D01*
X001605Y011300D01*
X001605Y011060D01*
X001665Y011000D01*
X001785Y011000D01*
X001845Y011060D01*
X001477Y011360D02*
X001237Y011360D01*
X001357Y011360D02*
X001357Y011000D01*
X001109Y011060D02*
X001109Y011300D01*
X001048Y011360D01*
X000928Y011360D01*
X000868Y011300D01*
X000868Y011060D01*
X000928Y011000D01*
X001048Y011000D01*
X001109Y011060D01*
X000740Y011000D02*
X000740Y011360D01*
X000620Y011240D01*
X000500Y011360D01*
X000500Y011000D01*
X000487Y011500D02*
X000607Y011500D01*
X000667Y011560D01*
X000667Y011860D01*
X000795Y011740D02*
X000915Y011860D01*
X001035Y011740D01*
X001035Y011500D01*
X001163Y011500D02*
X001163Y011860D01*
X001344Y011860D01*
X001404Y011800D01*
X001404Y011680D01*
X001344Y011620D01*
X001163Y011620D01*
X001283Y011620D02*
X001404Y011500D01*
X001652Y011500D02*
X001652Y011860D01*
X001532Y011860D02*
X001772Y011860D01*
X001035Y011680D02*
X000795Y011680D01*
X000795Y011740D02*
X000795Y011500D01*
X000487Y011500D02*
X000427Y011560D01*
X000427Y011860D01*
X003300Y012077D02*
X003377Y012000D01*
X003530Y012000D01*
X003607Y012077D01*
X003760Y012230D02*
X004067Y012230D01*
X003991Y012000D02*
X003991Y012460D01*
X003760Y012230D01*
X003607Y012384D02*
X003530Y012460D01*
X003377Y012460D01*
X003300Y012384D01*
X003300Y012077D01*
X004785Y011760D02*
X004785Y011400D01*
X004785Y011520D02*
X004965Y011520D01*
X005025Y011580D01*
X005025Y011700D01*
X004965Y011760D01*
X004785Y011760D01*
X004905Y011520D02*
X005025Y011400D01*
X005153Y011460D02*
X005214Y011400D01*
X005334Y011400D01*
X005394Y011460D01*
X005394Y011520D01*
X005334Y011580D01*
X005214Y011580D01*
X005153Y011640D01*
X005153Y011700D01*
X005214Y011760D01*
X005334Y011760D01*
X005394Y011700D01*
X005522Y011580D02*
X005762Y011580D01*
X005890Y011520D02*
X005890Y011460D01*
X005950Y011400D01*
X006070Y011400D01*
X006130Y011460D01*
X006130Y011520D01*
X006070Y011580D01*
X005950Y011580D01*
X005890Y011640D01*
X005890Y011700D01*
X005950Y011760D01*
X006070Y011760D01*
X006130Y011700D01*
X006130Y011640D01*
X006070Y011580D01*
X005950Y011580D02*
X005890Y011520D01*
X005702Y011400D02*
X005702Y011760D01*
X005522Y011580D01*
X006258Y011580D02*
X006379Y011640D01*
X006439Y011640D01*
X006499Y011580D01*
X006499Y011460D01*
X006439Y011400D01*
X006318Y011400D01*
X006258Y011460D01*
X006258Y011580D02*
X006258Y011760D01*
X006499Y011760D01*
X006627Y011580D02*
X006867Y011580D01*
X006995Y011520D02*
X007175Y011520D01*
X007235Y011580D01*
X007235Y011700D01*
X007175Y011760D01*
X006995Y011760D01*
X006995Y011400D01*
X007363Y011400D02*
X007483Y011520D01*
X007604Y011400D01*
X007604Y011760D01*
X007732Y011760D02*
X007912Y011760D01*
X007972Y011700D01*
X007972Y011580D01*
X007912Y011520D01*
X007732Y011520D01*
X007852Y011520D02*
X007972Y011400D01*
X007732Y011400D02*
X007732Y011760D01*
X007363Y011760D02*
X007363Y011400D01*
X005897Y010534D02*
X005897Y010457D01*
X005590Y010150D01*
X005897Y010150D01*
X005897Y010534D02*
X005820Y010610D01*
X005666Y010610D01*
X005590Y010534D01*
X005436Y010534D02*
X005359Y010610D01*
X005206Y010610D01*
X005129Y010534D01*
X005129Y010227D01*
X005206Y010150D01*
X005359Y010150D01*
X005436Y010227D01*
X004976Y010150D02*
X004822Y010150D01*
X004899Y010150D02*
X004899Y010610D01*
X004822Y010610D02*
X004976Y010610D01*
X006600Y009491D02*
X006600Y009337D01*
X006676Y009260D01*
X006676Y009107D02*
X006830Y009107D01*
X006907Y009030D01*
X006907Y008800D01*
X006907Y008953D02*
X007060Y009107D01*
X006983Y009260D02*
X007060Y009337D01*
X007060Y009491D01*
X006983Y009567D01*
X006907Y009567D01*
X006830Y009491D01*
X006830Y009414D01*
X006830Y009491D02*
X006753Y009567D01*
X006676Y009567D01*
X006600Y009491D01*
X006676Y009107D02*
X006600Y009030D01*
X006600Y008800D01*
X007060Y008800D01*
X007679Y009000D02*
X007679Y009460D01*
X007909Y009460D01*
X007986Y009384D01*
X007986Y009230D01*
X007909Y009153D01*
X007679Y009153D01*
X007833Y009153D02*
X007986Y009000D01*
X008140Y009000D02*
X008447Y009000D01*
X008293Y009000D02*
X008293Y009460D01*
X008140Y009307D01*
X008360Y004672D02*
X008300Y004612D01*
X008300Y004492D01*
X008360Y004432D01*
X008600Y004432D01*
X008660Y004492D01*
X008660Y004612D01*
X008600Y004672D01*
X008600Y004304D02*
X008360Y004304D01*
X008300Y004244D01*
X008300Y004063D01*
X008660Y004063D01*
X008660Y004244D01*
X008600Y004304D01*
X008660Y003935D02*
X008420Y003935D01*
X008300Y003815D01*
X008420Y003695D01*
X008660Y003695D01*
X008480Y003695D02*
X008480Y003935D01*
X008517Y003260D02*
X008337Y003260D01*
X008337Y002900D01*
X008337Y003020D02*
X008517Y003020D01*
X008577Y003080D01*
X008577Y003200D01*
X008517Y003260D01*
X008457Y003020D02*
X008577Y002900D01*
X008825Y002900D02*
X008825Y003260D01*
X008705Y003260D02*
X008945Y003260D01*
X009073Y003260D02*
X009253Y003260D01*
X009313Y003200D01*
X009313Y003140D01*
X009253Y003080D01*
X009073Y003080D01*
X009073Y002900D02*
X009253Y002900D01*
X009313Y002960D01*
X009313Y003020D01*
X009253Y003080D01*
X009073Y002900D02*
X009073Y003260D01*
X008209Y003200D02*
X008209Y002960D01*
X008148Y002900D01*
X008028Y002900D01*
X007968Y002960D01*
X007968Y003200D01*
X008028Y003260D01*
X008148Y003260D01*
X008209Y003200D01*
X007840Y003200D02*
X007840Y003080D01*
X007780Y003020D01*
X007600Y003020D01*
X007600Y002900D02*
X007600Y003260D01*
X007780Y003260D01*
X007840Y003200D01*
X003160Y006779D02*
X002700Y006779D01*
X002700Y007009D01*
X002776Y007086D01*
X002930Y007086D01*
X003007Y007009D01*
X003007Y006779D01*
X003007Y006933D02*
X003160Y007086D01*
X003160Y007240D02*
X002853Y007547D01*
X002776Y007547D01*
X002700Y007470D01*
X002700Y007316D01*
X002776Y007240D01*
X003160Y007240D02*
X003160Y007547D01*
X002553Y003360D02*
X002373Y003360D01*
X002373Y003000D01*
X002553Y003000D01*
X002613Y003060D01*
X002613Y003300D01*
X002553Y003360D01*
X002245Y003360D02*
X002005Y003360D01*
X002125Y003360D02*
X002125Y003000D01*
X001877Y003000D02*
X001757Y003120D01*
X001817Y003120D02*
X001637Y003120D01*
X001637Y003000D02*
X001637Y003360D01*
X001817Y003360D01*
X001877Y003300D01*
X001877Y003180D01*
X001817Y003120D01*
X001509Y003060D02*
X001509Y003300D01*
X001448Y003360D01*
X001328Y003360D01*
X001268Y003300D01*
X001268Y003060D01*
X001328Y003000D01*
X001448Y003000D01*
X001509Y003060D01*
X001140Y003180D02*
X001080Y003120D01*
X000900Y003120D01*
X000900Y003000D02*
X000900Y003360D01*
X001080Y003360D01*
X001140Y003300D01*
X001140Y003180D01*
D14*
X008680Y011530D02*
X008780Y011530D01*
X008780Y012480D01*
X008680Y012480D01*
X010980Y012480D02*
X010980Y011480D01*
X011080Y011480D01*
X011080Y012480D02*
X010980Y012480D01*
D15*
X010266Y013655D02*
X009965Y013655D01*
X010116Y013655D02*
X010116Y014105D01*
X009965Y013955D01*
X009805Y014030D02*
X009730Y014105D01*
X009580Y014105D01*
X009505Y014030D01*
X009505Y013955D01*
X009580Y013880D01*
X009730Y013880D01*
X009805Y013805D01*
X009805Y013730D01*
X009730Y013655D01*
X009580Y013655D01*
X009505Y013730D01*
D16*
X008580Y013780D02*
X004580Y013780D01*
X004580Y014530D01*
X008580Y014530D01*
X008580Y013780D01*
X008580Y012030D01*
X004580Y012030D01*
X004580Y013780D01*
X004380Y013780D02*
X000380Y013780D01*
X000380Y014530D01*
X004380Y014530D01*
X004380Y013780D01*
X004380Y012030D01*
X000380Y012030D01*
X000380Y013780D01*
X000230Y010780D02*
X000980Y010780D01*
X000980Y006780D01*
X000230Y006780D01*
X000230Y010780D01*
X000980Y010780D02*
X002730Y010780D01*
X002730Y006780D01*
X000980Y006780D01*
X000380Y002730D02*
X003380Y002730D01*
X003380Y000980D01*
X000380Y000980D01*
X000380Y002730D01*
X000380Y000980D02*
X000380Y000230D01*
X003380Y000230D01*
X003380Y000980D01*
X003580Y000980D02*
X009580Y000980D01*
X009580Y000230D01*
X003580Y000230D01*
X003580Y000980D01*
X003580Y002730D01*
X009580Y002730D01*
X009580Y000980D01*
X008830Y003580D02*
X008830Y009580D01*
X010580Y009580D01*
X010580Y003580D01*
X008830Y003580D01*
X010580Y003580D02*
X011330Y003580D01*
X011330Y009580D01*
X010580Y009580D01*
D17*
X003916Y009539D03*
X003444Y009539D03*
D18*
X003680Y009539D03*
M02*
