G75*
G70*
%OFA0B0*%
%FSLAX24Y24*%
%IPPOS*%
%LPD*%
%AMOC8*
5,1,8,0,0,1.08239X$1,22.5*
%
%ADD10C,0.0000*%
%ADD11R,0.0580X0.0300*%
%ADD12R,0.0300X0.0580*%
%ADD13R,0.0671X0.0592*%
%ADD14C,0.0680*%
%ADD15C,0.0600*%
%ADD16R,0.0316X0.0946*%
%ADD17R,0.0592X0.0671*%
%ADD18C,0.0674*%
%ADD19R,0.0552X0.0552*%
%ADD20C,0.0671*%
D10*
X000180Y000180D02*
X000180Y014750D01*
X011472Y014750D01*
X011472Y000180D01*
X000180Y000180D01*
D11*
X003990Y004478D03*
X003990Y004793D03*
X003990Y005108D03*
X003990Y005423D03*
X003990Y005737D03*
X003990Y006052D03*
X003990Y006367D03*
X003990Y006682D03*
X007370Y006682D03*
X007370Y006367D03*
X007370Y006052D03*
X007370Y005737D03*
X007370Y005423D03*
X007370Y005108D03*
X007370Y004793D03*
X007370Y004478D03*
D12*
X006782Y003890D03*
X006467Y003890D03*
X006152Y003890D03*
X005837Y003890D03*
X005523Y003890D03*
X005208Y003890D03*
X004893Y003890D03*
X004578Y003890D03*
X004578Y007270D03*
X004893Y007270D03*
X005208Y007270D03*
X005523Y007270D03*
X005837Y007270D03*
X006152Y007270D03*
X006467Y007270D03*
X006782Y007270D03*
D13*
X006880Y010145D03*
X006880Y010815D03*
X008180Y010815D03*
X008180Y010145D03*
X003680Y008315D03*
X003680Y007645D03*
D14*
X008990Y010400D02*
X008990Y011000D01*
X008990Y012960D02*
X008990Y013560D01*
X010770Y013560D02*
X010770Y012960D01*
X010770Y011000D02*
X010770Y010400D01*
D15*
X002280Y005830D03*
X002280Y003930D03*
D16*
X004630Y009356D03*
X005130Y009356D03*
X005630Y009356D03*
X006130Y009356D03*
X006130Y011404D03*
X005630Y011404D03*
X005130Y011404D03*
X004630Y011404D03*
D17*
X003954Y011480D03*
X003206Y011480D03*
D18*
X002880Y012983D02*
X002880Y013577D01*
X001880Y013577D02*
X001880Y012983D01*
X000880Y012983D02*
X000880Y013577D01*
X001183Y010280D02*
X001777Y010280D01*
X001777Y009280D02*
X001183Y009280D01*
X001183Y008280D02*
X001777Y008280D01*
X001777Y007280D02*
X001183Y007280D01*
X000880Y001777D02*
X000880Y001183D01*
X001880Y001183D02*
X001880Y001777D01*
X002880Y001777D02*
X002880Y001183D01*
X004080Y001183D02*
X004080Y001777D01*
X005080Y001777D02*
X005080Y001183D01*
X006080Y001183D02*
X006080Y001777D01*
X007080Y001777D02*
X007080Y001183D01*
X008080Y001183D02*
X008080Y001777D01*
X009080Y001777D02*
X009080Y001183D01*
X009783Y004080D02*
X010377Y004080D01*
X010377Y005080D02*
X009783Y005080D01*
X009783Y006080D02*
X010377Y006080D01*
X010377Y007080D02*
X009783Y007080D01*
X009783Y008080D02*
X010377Y008080D01*
X010377Y009080D02*
X009783Y009080D01*
X008080Y012983D02*
X008080Y013577D01*
X007080Y013577D02*
X007080Y012983D01*
X006080Y012983D02*
X006080Y013577D01*
X005080Y013577D02*
X005080Y012983D01*
X003880Y012983D02*
X003880Y013577D01*
D19*
X003680Y009893D03*
X003680Y009067D03*
D20*
X002980Y009980D03*
X004680Y010480D03*
X003180Y012380D03*
X006280Y006580D03*
X005580Y005180D03*
X001680Y004880D03*
X008180Y011780D03*
X009880Y003180D03*
X009880Y002480D03*
X010580Y002480D03*
X010580Y003180D03*
M02*
