G75*
G70*
%OFA0B0*%
%FSLAX24Y24*%
%IPPOS*%
%LPD*%
%AMOC8*
5,1,8,0,0,1.08239X$1,22.5*
%
%ADD10C,0.0000*%
%ADD11C,0.0600*%
%ADD12C,0.0520*%
%ADD13C,0.0594*%
%ADD14C,0.0591*%
%ADD15C,0.0160*%
D10*
X000180Y000180D02*
X000180Y014750D01*
X011472Y014750D01*
X011472Y000180D01*
X000180Y000180D01*
D11*
X008990Y010700D03*
X010770Y010700D03*
X010770Y013260D03*
X008990Y013260D03*
D12*
X002280Y005830D03*
X002280Y003930D03*
D13*
X001880Y001480D03*
X002880Y001480D03*
X004080Y001480D03*
X005080Y001480D03*
X006080Y001480D03*
X007080Y001480D03*
X008080Y001480D03*
X009080Y001480D03*
X010080Y004080D03*
X010080Y005080D03*
X010080Y006080D03*
X010080Y007080D03*
X010080Y008080D03*
X010080Y009080D03*
X008080Y013280D03*
X007080Y013280D03*
X006080Y013280D03*
X005080Y013280D03*
X003880Y013280D03*
X002880Y013280D03*
X001880Y013280D03*
X000880Y013280D03*
X001480Y010280D03*
X001480Y009280D03*
X001480Y008280D03*
X001480Y007280D03*
X000880Y001480D03*
D14*
X001680Y004880D03*
X005580Y005180D03*
X006280Y006580D03*
X004680Y010480D03*
X003180Y012380D03*
X002980Y009980D03*
X008180Y011780D03*
X009880Y003180D03*
X009880Y002480D03*
X010580Y002480D03*
X010580Y003180D03*
D15*
X010992Y003192D02*
X000660Y003192D01*
X000660Y003350D02*
X010992Y003350D01*
X010992Y003509D02*
X000660Y003509D01*
X000660Y003667D02*
X001949Y003667D01*
X001924Y003692D02*
X002042Y003574D01*
X002196Y003510D01*
X002364Y003510D01*
X002518Y003574D01*
X002636Y003692D01*
X002700Y003846D01*
X002700Y004014D01*
X002636Y004168D01*
X002518Y004286D01*
X002364Y004350D01*
X002196Y004350D01*
X002042Y004286D01*
X001924Y004168D01*
X001860Y004014D01*
X001860Y003846D01*
X001924Y003692D01*
X001869Y003826D02*
X000660Y003826D01*
X000660Y003984D02*
X001860Y003984D01*
X001913Y004143D02*
X000660Y004143D01*
X000660Y004301D02*
X002078Y004301D01*
X001855Y004460D02*
X009813Y004460D01*
X009821Y004467D02*
X009693Y004339D01*
X009623Y004171D01*
X009623Y003989D01*
X009693Y003821D01*
X009821Y003693D01*
X009989Y003623D01*
X010171Y003623D01*
X010339Y003693D01*
X010467Y003821D01*
X010537Y003989D01*
X010537Y004171D01*
X010467Y004339D01*
X010339Y004467D01*
X010171Y004537D01*
X009989Y004537D01*
X009821Y004467D01*
X009677Y004301D02*
X002482Y004301D01*
X002647Y004143D02*
X009623Y004143D01*
X009625Y003984D02*
X002700Y003984D01*
X002691Y003826D02*
X009691Y003826D01*
X009883Y003667D02*
X002611Y003667D01*
X001938Y004494D02*
X002066Y004622D01*
X002135Y004789D01*
X002135Y004971D01*
X002066Y005138D01*
X001938Y005266D01*
X001771Y005335D01*
X001589Y005335D01*
X001422Y005266D01*
X001294Y005138D01*
X001225Y004971D01*
X001225Y004789D01*
X001294Y004622D01*
X001422Y004494D01*
X001589Y004425D01*
X001771Y004425D01*
X001938Y004494D01*
X002062Y004618D02*
X010992Y004618D01*
X010992Y004460D02*
X010347Y004460D01*
X010483Y004301D02*
X010992Y004301D01*
X010992Y004143D02*
X010537Y004143D01*
X010535Y003984D02*
X010992Y003984D01*
X010992Y003826D02*
X010469Y003826D01*
X010277Y003667D02*
X010992Y003667D01*
X010992Y003033D02*
X000660Y003033D01*
X000660Y002875D02*
X010992Y002875D01*
X010992Y002716D02*
X000660Y002716D01*
X000660Y002558D02*
X010992Y002558D01*
X010992Y002399D02*
X000660Y002399D01*
X000660Y002241D02*
X010992Y002241D01*
X010992Y002082D02*
X000660Y002082D01*
X000660Y001924D02*
X000757Y001924D01*
X000789Y001937D02*
X000660Y001883D01*
X000660Y012877D01*
X000789Y012823D01*
X000971Y012823D01*
X001139Y012893D01*
X001267Y013021D01*
X001337Y013189D01*
X001337Y013371D01*
X001267Y013539D01*
X001139Y013667D01*
X000971Y013737D01*
X000789Y013737D01*
X000660Y013683D01*
X000660Y014270D01*
X010992Y014270D01*
X010992Y013666D01*
X010861Y013720D01*
X010678Y013720D01*
X010509Y013650D01*
X010380Y013521D01*
X010310Y013351D01*
X010310Y013168D01*
X010380Y012999D01*
X010509Y012870D01*
X010678Y012800D01*
X010861Y012800D01*
X010992Y012854D01*
X010992Y011106D01*
X010861Y011160D01*
X010678Y011160D01*
X010509Y011090D01*
X010380Y010961D01*
X010310Y010791D01*
X010310Y010608D01*
X010380Y010439D01*
X010509Y010310D01*
X010678Y010240D01*
X010861Y010240D01*
X010992Y010294D01*
X010992Y000660D01*
X000660Y000660D01*
X000660Y001077D01*
X000789Y001023D01*
X000971Y001023D01*
X001139Y001093D01*
X001267Y001221D01*
X001337Y001389D01*
X001337Y001571D01*
X001267Y001739D01*
X001139Y001867D01*
X000971Y001937D01*
X000789Y001937D01*
X001003Y001924D02*
X001757Y001924D01*
X001789Y001937D02*
X001621Y001867D01*
X001493Y001739D01*
X001423Y001571D01*
X001423Y001389D01*
X001493Y001221D01*
X001621Y001093D01*
X001789Y001023D01*
X001971Y001023D01*
X002139Y001093D01*
X002267Y001221D01*
X002337Y001389D01*
X002337Y001571D01*
X002267Y001739D01*
X002139Y001867D01*
X001971Y001937D01*
X001789Y001937D01*
X002003Y001924D02*
X002757Y001924D01*
X002789Y001937D02*
X002621Y001867D01*
X002493Y001739D01*
X002423Y001571D01*
X002423Y001389D01*
X002493Y001221D01*
X002621Y001093D01*
X002789Y001023D01*
X002971Y001023D01*
X003139Y001093D01*
X003267Y001221D01*
X003337Y001389D01*
X003337Y001571D01*
X003267Y001739D01*
X003139Y001867D01*
X002971Y001937D01*
X002789Y001937D01*
X003003Y001924D02*
X003957Y001924D01*
X003989Y001937D02*
X003821Y001867D01*
X003693Y001739D01*
X003623Y001571D01*
X003623Y001389D01*
X003693Y001221D01*
X003821Y001093D01*
X003989Y001023D01*
X004171Y001023D01*
X004339Y001093D01*
X004467Y001221D01*
X004537Y001389D01*
X004537Y001571D01*
X004467Y001739D01*
X004339Y001867D01*
X004171Y001937D01*
X003989Y001937D01*
X004203Y001924D02*
X004957Y001924D01*
X004989Y001937D02*
X004821Y001867D01*
X004693Y001739D01*
X004623Y001571D01*
X004623Y001389D01*
X004693Y001221D01*
X004821Y001093D01*
X004989Y001023D01*
X005171Y001023D01*
X005339Y001093D01*
X005467Y001221D01*
X005537Y001389D01*
X005537Y001571D01*
X005467Y001739D01*
X005339Y001867D01*
X005171Y001937D01*
X004989Y001937D01*
X005203Y001924D02*
X005957Y001924D01*
X005989Y001937D02*
X005821Y001867D01*
X005693Y001739D01*
X005623Y001571D01*
X005623Y001389D01*
X005693Y001221D01*
X005821Y001093D01*
X005989Y001023D01*
X006171Y001023D01*
X006339Y001093D01*
X006467Y001221D01*
X006537Y001389D01*
X006537Y001571D01*
X006467Y001739D01*
X006339Y001867D01*
X006171Y001937D01*
X005989Y001937D01*
X006203Y001924D02*
X006957Y001924D01*
X006989Y001937D02*
X006821Y001867D01*
X006693Y001739D01*
X006623Y001571D01*
X006623Y001389D01*
X006693Y001221D01*
X006821Y001093D01*
X006989Y001023D01*
X007171Y001023D01*
X007339Y001093D01*
X007467Y001221D01*
X007537Y001389D01*
X007537Y001571D01*
X007467Y001739D01*
X007339Y001867D01*
X007171Y001937D01*
X006989Y001937D01*
X007203Y001924D02*
X007957Y001924D01*
X007989Y001937D02*
X007821Y001867D01*
X007693Y001739D01*
X007623Y001571D01*
X007623Y001389D01*
X007693Y001221D01*
X007821Y001093D01*
X007989Y001023D01*
X008171Y001023D01*
X008339Y001093D01*
X008467Y001221D01*
X008537Y001389D01*
X008537Y001571D01*
X008467Y001739D01*
X008339Y001867D01*
X008171Y001937D01*
X007989Y001937D01*
X008203Y001924D02*
X008957Y001924D01*
X008989Y001937D02*
X008821Y001867D01*
X008693Y001739D01*
X008623Y001571D01*
X008623Y001389D01*
X008693Y001221D01*
X008821Y001093D01*
X008989Y001023D01*
X009171Y001023D01*
X009339Y001093D01*
X009467Y001221D01*
X009537Y001389D01*
X009537Y001571D01*
X009467Y001739D01*
X009339Y001867D01*
X009171Y001937D01*
X008989Y001937D01*
X009203Y001924D02*
X010992Y001924D01*
X010992Y001765D02*
X009441Y001765D01*
X009522Y001607D02*
X010992Y001607D01*
X010992Y001448D02*
X009537Y001448D01*
X009496Y001290D02*
X010992Y001290D01*
X010992Y001131D02*
X009377Y001131D01*
X008783Y001131D02*
X008377Y001131D01*
X008496Y001290D02*
X008664Y001290D01*
X008623Y001448D02*
X008537Y001448D01*
X008522Y001607D02*
X008638Y001607D01*
X008719Y001765D02*
X008441Y001765D01*
X007783Y001131D02*
X007377Y001131D01*
X007496Y001290D02*
X007664Y001290D01*
X007623Y001448D02*
X007537Y001448D01*
X007522Y001607D02*
X007638Y001607D01*
X007719Y001765D02*
X007441Y001765D01*
X006719Y001765D02*
X006441Y001765D01*
X006522Y001607D02*
X006638Y001607D01*
X006623Y001448D02*
X006537Y001448D01*
X006496Y001290D02*
X006664Y001290D01*
X006783Y001131D02*
X006377Y001131D01*
X005783Y001131D02*
X005377Y001131D01*
X005496Y001290D02*
X005664Y001290D01*
X005623Y001448D02*
X005537Y001448D01*
X005522Y001607D02*
X005638Y001607D01*
X005719Y001765D02*
X005441Y001765D01*
X004783Y001131D02*
X004377Y001131D01*
X004496Y001290D02*
X004664Y001290D01*
X004623Y001448D02*
X004537Y001448D01*
X004522Y001607D02*
X004638Y001607D01*
X004719Y001765D02*
X004441Y001765D01*
X003719Y001765D02*
X003241Y001765D01*
X003322Y001607D02*
X003638Y001607D01*
X003623Y001448D02*
X003337Y001448D01*
X003296Y001290D02*
X003664Y001290D01*
X003783Y001131D02*
X003177Y001131D01*
X002583Y001131D02*
X002177Y001131D01*
X002296Y001290D02*
X002464Y001290D01*
X002423Y001448D02*
X002337Y001448D01*
X002322Y001607D02*
X002438Y001607D01*
X002519Y001765D02*
X002241Y001765D01*
X001519Y001765D02*
X001241Y001765D01*
X001322Y001607D02*
X001438Y001607D01*
X001423Y001448D02*
X001337Y001448D01*
X001296Y001290D02*
X001464Y001290D01*
X001583Y001131D02*
X001177Y001131D01*
X000660Y000973D02*
X010992Y000973D01*
X010992Y000814D02*
X000660Y000814D01*
X000660Y004460D02*
X001505Y004460D01*
X001298Y004618D02*
X000660Y004618D01*
X000660Y004777D02*
X001230Y004777D01*
X001225Y004935D02*
X000660Y004935D01*
X000660Y005094D02*
X001276Y005094D01*
X001408Y005252D02*
X000660Y005252D01*
X000660Y005411D02*
X002195Y005411D01*
X002196Y005410D02*
X002364Y005410D01*
X002518Y005474D01*
X002636Y005592D01*
X002700Y005746D01*
X002700Y005914D01*
X002636Y006068D01*
X002518Y006186D01*
X002364Y006250D01*
X002196Y006250D01*
X002042Y006186D01*
X001924Y006068D01*
X001860Y005914D01*
X001860Y005746D01*
X001924Y005592D01*
X002042Y005474D01*
X002196Y005410D01*
X002365Y005411D02*
X009764Y005411D01*
X009821Y005467D02*
X009693Y005339D01*
X009623Y005171D01*
X009623Y004989D01*
X009693Y004821D01*
X009821Y004693D01*
X009989Y004623D01*
X010171Y004623D01*
X010339Y004693D01*
X010467Y004821D01*
X010537Y004989D01*
X010537Y005171D01*
X010467Y005339D01*
X010339Y005467D01*
X010171Y005537D01*
X009989Y005537D01*
X009821Y005467D01*
X009657Y005252D02*
X001952Y005252D01*
X002084Y005094D02*
X009623Y005094D01*
X009646Y004935D02*
X002135Y004935D01*
X002130Y004777D02*
X009737Y004777D01*
X010396Y005411D02*
X010992Y005411D01*
X010992Y005569D02*
X002613Y005569D01*
X002692Y005728D02*
X009786Y005728D01*
X009821Y005693D02*
X009989Y005623D01*
X010171Y005623D01*
X010339Y005693D01*
X010467Y005821D01*
X010537Y005989D01*
X010537Y006171D01*
X010467Y006339D01*
X010339Y006467D01*
X010171Y006537D01*
X009989Y006537D01*
X009821Y006467D01*
X009693Y006339D01*
X009623Y006171D01*
X009623Y005989D01*
X009693Y005821D01*
X009821Y005693D01*
X009666Y005886D02*
X002700Y005886D01*
X002646Y006045D02*
X009623Y006045D01*
X009636Y006203D02*
X006547Y006203D01*
X006538Y006194D02*
X006666Y006322D01*
X006735Y006489D01*
X006735Y006671D01*
X006666Y006838D01*
X006538Y006966D01*
X006371Y007035D01*
X006189Y007035D01*
X006022Y006966D01*
X005894Y006838D01*
X005825Y006671D01*
X005825Y006489D01*
X005894Y006322D01*
X006022Y006194D01*
X006189Y006125D01*
X006371Y006125D01*
X006538Y006194D01*
X006682Y006362D02*
X009715Y006362D01*
X009948Y006520D02*
X006735Y006520D01*
X006732Y006679D02*
X009855Y006679D01*
X009821Y006693D02*
X009989Y006623D01*
X010171Y006623D01*
X010339Y006693D01*
X010467Y006821D01*
X010537Y006989D01*
X010537Y007171D01*
X010467Y007339D01*
X010339Y007467D01*
X010171Y007537D01*
X009989Y007537D01*
X009821Y007467D01*
X009693Y007339D01*
X009623Y007171D01*
X009623Y006989D01*
X009693Y006821D01*
X009821Y006693D01*
X009686Y006837D02*
X006666Y006837D01*
X006467Y006996D02*
X009623Y006996D01*
X009623Y007154D02*
X001922Y007154D01*
X001937Y007189D02*
X001867Y007021D01*
X001739Y006893D01*
X001571Y006823D01*
X001389Y006823D01*
X001221Y006893D01*
X001093Y007021D01*
X001023Y007189D01*
X001023Y007371D01*
X001093Y007539D01*
X001221Y007667D01*
X001389Y007737D01*
X001571Y007737D01*
X001739Y007667D01*
X001867Y007539D01*
X001937Y007371D01*
X001937Y007189D01*
X001937Y007313D02*
X009682Y007313D01*
X009830Y007471D02*
X001895Y007471D01*
X001777Y007630D02*
X009974Y007630D01*
X009989Y007623D02*
X010171Y007623D01*
X010339Y007693D01*
X010467Y007821D01*
X010537Y007989D01*
X010537Y008171D01*
X010467Y008339D01*
X010339Y008467D01*
X010171Y008537D01*
X009989Y008537D01*
X009821Y008467D01*
X009693Y008339D01*
X009623Y008171D01*
X009623Y007989D01*
X009693Y007821D01*
X009821Y007693D01*
X009989Y007623D01*
X010186Y007630D02*
X010992Y007630D01*
X010992Y007788D02*
X010434Y007788D01*
X010519Y007947D02*
X010992Y007947D01*
X010992Y008105D02*
X010537Y008105D01*
X010498Y008264D02*
X010992Y008264D01*
X010992Y008422D02*
X010384Y008422D01*
X010339Y008693D02*
X010467Y008821D01*
X010537Y008989D01*
X010537Y009171D01*
X010467Y009339D01*
X010339Y009467D01*
X010171Y009537D01*
X009989Y009537D01*
X009821Y009467D01*
X009693Y009339D01*
X009623Y009171D01*
X009623Y008989D01*
X009693Y008821D01*
X009821Y008693D01*
X009989Y008623D01*
X010171Y008623D01*
X010339Y008693D01*
X010385Y008739D02*
X010992Y008739D01*
X010992Y008581D02*
X001826Y008581D01*
X001867Y008539D02*
X001739Y008667D01*
X001571Y008737D01*
X001389Y008737D01*
X001221Y008667D01*
X001093Y008539D01*
X001023Y008371D01*
X001023Y008189D01*
X001093Y008021D01*
X001221Y007893D01*
X001389Y007823D01*
X001571Y007823D01*
X001739Y007893D01*
X001867Y008021D01*
X001937Y008189D01*
X001937Y008371D01*
X001867Y008539D01*
X001916Y008422D02*
X009776Y008422D01*
X009662Y008264D02*
X001937Y008264D01*
X001902Y008105D02*
X009623Y008105D01*
X009641Y007947D02*
X001793Y007947D01*
X001167Y007947D02*
X000660Y007947D01*
X000660Y008105D02*
X001058Y008105D01*
X001023Y008264D02*
X000660Y008264D01*
X000660Y008422D02*
X001044Y008422D01*
X001134Y008581D02*
X000660Y008581D01*
X000660Y008739D02*
X009775Y008739D01*
X009661Y008898D02*
X001744Y008898D01*
X001739Y008893D02*
X001867Y009021D01*
X001937Y009189D01*
X001937Y009371D01*
X001867Y009539D01*
X001739Y009667D01*
X001571Y009737D01*
X001389Y009737D01*
X001221Y009667D01*
X001093Y009539D01*
X001023Y009371D01*
X001023Y009189D01*
X001093Y009021D01*
X001221Y008893D01*
X001389Y008823D01*
X001571Y008823D01*
X001739Y008893D01*
X001882Y009056D02*
X009623Y009056D01*
X009641Y009215D02*
X001937Y009215D01*
X001936Y009373D02*
X009727Y009373D01*
X009976Y009532D02*
X003087Y009532D01*
X003071Y009525D02*
X003238Y009594D01*
X003366Y009722D01*
X003435Y009889D01*
X003435Y010071D01*
X003366Y010238D01*
X003238Y010366D01*
X003071Y010435D01*
X002889Y010435D01*
X002722Y010366D01*
X002594Y010238D01*
X002525Y010071D01*
X002525Y009889D01*
X002594Y009722D01*
X002722Y009594D01*
X002889Y009525D01*
X003071Y009525D01*
X002873Y009532D02*
X001870Y009532D01*
X001684Y009690D02*
X002626Y009690D01*
X002542Y009849D02*
X001632Y009849D01*
X001571Y009823D02*
X001739Y009893D01*
X001867Y010021D01*
X001937Y010189D01*
X001937Y010371D01*
X001867Y010539D01*
X001739Y010667D01*
X001571Y010737D01*
X001389Y010737D01*
X001221Y010667D01*
X001093Y010539D01*
X001023Y010371D01*
X001023Y010189D01*
X001093Y010021D01*
X001221Y009893D01*
X001389Y009823D01*
X001571Y009823D01*
X001328Y009849D02*
X000660Y009849D01*
X000660Y010007D02*
X001107Y010007D01*
X001033Y010166D02*
X000660Y010166D01*
X000660Y010324D02*
X001023Y010324D01*
X001069Y010483D02*
X000660Y010483D01*
X000660Y010641D02*
X001195Y010641D01*
X000660Y010800D02*
X004356Y010800D01*
X004294Y010738D02*
X004225Y010571D01*
X004225Y010389D01*
X004294Y010222D01*
X004422Y010094D01*
X004589Y010025D01*
X004771Y010025D01*
X004938Y010094D01*
X005066Y010222D01*
X005135Y010389D01*
X005135Y010571D01*
X005066Y010738D01*
X004938Y010866D01*
X004771Y010935D01*
X004589Y010935D01*
X004422Y010866D01*
X004294Y010738D01*
X004254Y010641D02*
X001765Y010641D01*
X001891Y010483D02*
X004225Y010483D01*
X004252Y010324D02*
X003280Y010324D01*
X003396Y010166D02*
X004351Y010166D01*
X005009Y010166D02*
X010992Y010166D01*
X010992Y010007D02*
X003435Y010007D01*
X003418Y009849D02*
X010992Y009849D01*
X010992Y009690D02*
X003334Y009690D01*
X002680Y010324D02*
X001937Y010324D01*
X001927Y010166D02*
X002564Y010166D01*
X002525Y010007D02*
X001853Y010007D01*
X001276Y009690D02*
X000660Y009690D01*
X000660Y009532D02*
X001090Y009532D01*
X001024Y009373D02*
X000660Y009373D01*
X000660Y009215D02*
X001023Y009215D01*
X001078Y009056D02*
X000660Y009056D01*
X000660Y008898D02*
X001216Y008898D01*
X000660Y007788D02*
X009726Y007788D01*
X010330Y007471D02*
X010992Y007471D01*
X010992Y007313D02*
X010478Y007313D01*
X010537Y007154D02*
X010992Y007154D01*
X010992Y006996D02*
X010537Y006996D01*
X010474Y006837D02*
X010992Y006837D01*
X010992Y006679D02*
X010305Y006679D01*
X010212Y006520D02*
X010992Y006520D01*
X010992Y006362D02*
X010445Y006362D01*
X010524Y006203D02*
X010992Y006203D01*
X010992Y006045D02*
X010537Y006045D01*
X010494Y005886D02*
X010992Y005886D01*
X010992Y005728D02*
X010374Y005728D01*
X010503Y005252D02*
X010992Y005252D01*
X010992Y005094D02*
X010537Y005094D01*
X010514Y004935D02*
X010992Y004935D01*
X010992Y004777D02*
X010423Y004777D01*
X010499Y008898D02*
X010992Y008898D01*
X010992Y009056D02*
X010537Y009056D01*
X010519Y009215D02*
X010992Y009215D01*
X010992Y009373D02*
X010433Y009373D01*
X010184Y009532D02*
X010992Y009532D01*
X010495Y010324D02*
X009265Y010324D01*
X009251Y010310D02*
X009380Y010439D01*
X009450Y010608D01*
X009450Y010791D01*
X009380Y010961D01*
X009251Y011090D01*
X009081Y011160D01*
X008898Y011160D01*
X008729Y011090D01*
X008600Y010961D01*
X008530Y010791D01*
X008530Y010608D01*
X008600Y010439D01*
X008729Y010310D01*
X008898Y010240D01*
X009081Y010240D01*
X009251Y010310D01*
X009398Y010483D02*
X010362Y010483D01*
X010310Y010641D02*
X009450Y010641D01*
X009447Y010800D02*
X010313Y010800D01*
X010379Y010958D02*
X009381Y010958D01*
X009186Y011117D02*
X010574Y011117D01*
X010966Y011117D02*
X010992Y011117D01*
X010992Y011275D02*
X000660Y011275D01*
X000660Y011117D02*
X008794Y011117D01*
X008599Y010958D02*
X000660Y010958D01*
X000660Y011434D02*
X010992Y011434D01*
X010992Y011592D02*
X000660Y011592D01*
X000660Y011751D02*
X010992Y011751D01*
X010992Y011909D02*
X000660Y011909D01*
X000660Y012068D02*
X010992Y012068D01*
X010992Y012226D02*
X000660Y012226D01*
X000660Y012385D02*
X010992Y012385D01*
X010992Y012543D02*
X000660Y012543D01*
X000660Y012702D02*
X010992Y012702D01*
X010534Y012860D02*
X009226Y012860D01*
X009251Y012870D02*
X009380Y012999D01*
X009450Y013168D01*
X009450Y013351D01*
X009380Y013521D01*
X009251Y013650D01*
X009081Y013720D01*
X008898Y013720D01*
X008729Y013650D01*
X008600Y013521D01*
X008537Y013368D01*
X008537Y013371D01*
X008467Y013539D01*
X008339Y013667D01*
X008171Y013737D01*
X007989Y013737D01*
X007821Y013667D01*
X007693Y013539D01*
X007623Y013371D01*
X007623Y013189D01*
X007693Y013021D01*
X007821Y012893D01*
X007989Y012823D01*
X008171Y012823D01*
X008339Y012893D01*
X008467Y013021D01*
X008530Y013173D01*
X008530Y013168D01*
X008600Y012999D01*
X008729Y012870D01*
X008898Y012800D01*
X009081Y012800D01*
X009251Y012870D01*
X009388Y013019D02*
X010372Y013019D01*
X010310Y013177D02*
X009450Y013177D01*
X009450Y013336D02*
X010310Y013336D01*
X010369Y013494D02*
X009391Y013494D01*
X009244Y013653D02*
X010516Y013653D01*
X010992Y013811D02*
X000660Y013811D01*
X000660Y013970D02*
X010992Y013970D01*
X010992Y014128D02*
X000660Y014128D01*
X001154Y013653D02*
X001606Y013653D01*
X001621Y013667D02*
X001493Y013539D01*
X001423Y013371D01*
X001423Y013189D01*
X001493Y013021D01*
X001621Y012893D01*
X001789Y012823D01*
X001971Y012823D01*
X002139Y012893D01*
X002267Y013021D01*
X002337Y013189D01*
X002337Y013371D01*
X002267Y013539D01*
X002139Y013667D01*
X001971Y013737D01*
X001789Y013737D01*
X001621Y013667D01*
X001474Y013494D02*
X001286Y013494D01*
X001337Y013336D02*
X001423Y013336D01*
X001428Y013177D02*
X001332Y013177D01*
X001265Y013019D02*
X001495Y013019D01*
X001700Y012860D02*
X001060Y012860D01*
X000700Y012860D02*
X000660Y012860D01*
X002060Y012860D02*
X002700Y012860D01*
X002621Y012893D02*
X002789Y012823D01*
X002971Y012823D01*
X003139Y012893D01*
X003267Y013021D01*
X003337Y013189D01*
X003337Y013371D01*
X003267Y013539D01*
X003139Y013667D01*
X002971Y013737D01*
X002789Y013737D01*
X002621Y013667D01*
X002493Y013539D01*
X002423Y013371D01*
X002423Y013189D01*
X002493Y013021D01*
X002621Y012893D01*
X002495Y013019D02*
X002265Y013019D01*
X002332Y013177D02*
X002428Y013177D01*
X002423Y013336D02*
X002337Y013336D01*
X002286Y013494D02*
X002474Y013494D01*
X002606Y013653D02*
X002154Y013653D01*
X003060Y012860D02*
X003700Y012860D01*
X003621Y012893D02*
X003789Y012823D01*
X003971Y012823D01*
X004139Y012893D01*
X004267Y013021D01*
X004337Y013189D01*
X004337Y013371D01*
X004267Y013539D01*
X004139Y013667D01*
X003971Y013737D01*
X003789Y013737D01*
X003621Y013667D01*
X003493Y013539D01*
X003423Y013371D01*
X003423Y013189D01*
X003493Y013021D01*
X003621Y012893D01*
X003495Y013019D02*
X003265Y013019D01*
X003332Y013177D02*
X003428Y013177D01*
X003423Y013336D02*
X003337Y013336D01*
X003286Y013494D02*
X003474Y013494D01*
X003606Y013653D02*
X003154Y013653D01*
X004154Y013653D02*
X004806Y013653D01*
X004821Y013667D02*
X004693Y013539D01*
X004623Y013371D01*
X004623Y013189D01*
X004693Y013021D01*
X004821Y012893D01*
X004989Y012823D01*
X005171Y012823D01*
X005339Y012893D01*
X005467Y013021D01*
X005537Y013189D01*
X005537Y013371D01*
X005467Y013539D01*
X005339Y013667D01*
X005171Y013737D01*
X004989Y013737D01*
X004821Y013667D01*
X004674Y013494D02*
X004286Y013494D01*
X004337Y013336D02*
X004623Y013336D01*
X004628Y013177D02*
X004332Y013177D01*
X004265Y013019D02*
X004695Y013019D01*
X004900Y012860D02*
X004060Y012860D01*
X005260Y012860D02*
X005900Y012860D01*
X005821Y012893D02*
X005989Y012823D01*
X006171Y012823D01*
X006339Y012893D01*
X006467Y013021D01*
X006537Y013189D01*
X006537Y013371D01*
X006467Y013539D01*
X006339Y013667D01*
X006171Y013737D01*
X005989Y013737D01*
X005821Y013667D01*
X005693Y013539D01*
X005623Y013371D01*
X005623Y013189D01*
X005693Y013021D01*
X005821Y012893D01*
X005695Y013019D02*
X005465Y013019D01*
X005532Y013177D02*
X005628Y013177D01*
X005623Y013336D02*
X005537Y013336D01*
X005486Y013494D02*
X005674Y013494D01*
X005806Y013653D02*
X005354Y013653D01*
X006354Y013653D02*
X006806Y013653D01*
X006821Y013667D02*
X006693Y013539D01*
X006623Y013371D01*
X006623Y013189D01*
X006693Y013021D01*
X006821Y012893D01*
X006989Y012823D01*
X007171Y012823D01*
X007339Y012893D01*
X007467Y013021D01*
X007537Y013189D01*
X007537Y013371D01*
X007467Y013539D01*
X007339Y013667D01*
X007171Y013737D01*
X006989Y013737D01*
X006821Y013667D01*
X006674Y013494D02*
X006486Y013494D01*
X006537Y013336D02*
X006623Y013336D01*
X006628Y013177D02*
X006532Y013177D01*
X006465Y013019D02*
X006695Y013019D01*
X006900Y012860D02*
X006260Y012860D01*
X007260Y012860D02*
X007900Y012860D01*
X007695Y013019D02*
X007465Y013019D01*
X007532Y013177D02*
X007628Y013177D01*
X007623Y013336D02*
X007537Y013336D01*
X007486Y013494D02*
X007674Y013494D01*
X007806Y013653D02*
X007354Y013653D01*
X008260Y012860D02*
X008754Y012860D01*
X008592Y013019D02*
X008465Y013019D01*
X008486Y013494D02*
X008589Y013494D01*
X008736Y013653D02*
X008354Y013653D01*
X008533Y010800D02*
X005004Y010800D01*
X005106Y010641D02*
X008530Y010641D01*
X008582Y010483D02*
X005135Y010483D01*
X005108Y010324D02*
X008715Y010324D01*
X006093Y006996D02*
X001842Y006996D01*
X001604Y006837D02*
X005894Y006837D01*
X005828Y006679D02*
X000660Y006679D01*
X000660Y006837D02*
X001356Y006837D01*
X001118Y006996D02*
X000660Y006996D01*
X000660Y007154D02*
X001038Y007154D01*
X001023Y007313D02*
X000660Y007313D01*
X000660Y007471D02*
X001065Y007471D01*
X001183Y007630D02*
X000660Y007630D01*
X000660Y006520D02*
X005825Y006520D01*
X005878Y006362D02*
X000660Y006362D01*
X000660Y006203D02*
X002083Y006203D01*
X001914Y006045D02*
X000660Y006045D01*
X000660Y005886D02*
X001860Y005886D01*
X001868Y005728D02*
X000660Y005728D01*
X000660Y005569D02*
X001947Y005569D01*
X002477Y006203D02*
X006013Y006203D01*
M02*
